<?xml version="1.0" standalone="no"?>
 <!DOCTYPE svg PUBLIC "-//W3C//DTD SVG 1.1//EN" 
 "http://www.w3.org/Graphics/SVG/1.1/DTD/svg11.dtd"> 
<svg xmlns="http://www.w3.org/2000/svg" version="1.1" 
    width="29.7002cm" height="21.0007cm" viewBox="0 0 116930 82680 ">
<title>SVG Picture created as pholat_m8_brd-F_Cu.svg date 2013/09/09 15:28:57 </title>
  <desc>Picture generated by PCBNEW </desc>
<g style="fill:#000000; fill-opacity:1;stroke:#000000; stroke-opacity:1;
stroke-linecap:round; stroke-linejoin:round; "
 transform="translate(0 0) scale(1 1)">
</g>
<g style="fill:#000000; fill-opacity:0.0; 
stroke:#000000; stroke-width:59.0551; stroke-opacity:1; 
stroke-linecap:round; stroke-linejoin:round;">
</g>
<g style="fill:#000000; fill-opacity:1.0; 
stroke:#000000; stroke-width:59.0551; stroke-opacity:1; 
stroke-linecap:round; stroke-linejoin:round;">
<polyline style="fill-rule:evenodd;"
points="51020,24054
51020,24545
50729,24545
50729,24054
51020,24054
" /> 
<polyline style="fill-rule:evenodd;"
points="50270,24054
50270,24545
49979,24545
49979,24054
50270,24054
" /> 
<polyline style="fill-rule:evenodd;"
points="50220,25554
50220,26045
49929,26045
49929,25554
50220,25554
" /> 
<polyline style="fill-rule:evenodd;"
points="49470,25554
49470,26045
49179,26045
49179,25554
49470,25554
" /> 
<polyline style="fill-rule:evenodd;"
points="52506,20219
52093,20219
52093,19806
52506,19806
52506,20219
" /> 
<polyline style="fill-rule:evenodd;"
points="52506,19393
52093,19393
52093,18980
52506,18980
52506,19393
" /> 
<polyline style="fill-rule:evenodd;"
points="54806,20219
54393,20219
54393,19806
54806,19806
54806,20219
" /> 
<polyline style="fill-rule:evenodd;"
points="54806,19393
54393,19393
54393,18980
54806,18980
54806,19393
" /> 
<polyline style="fill-rule:evenodd;"
points="51740,26151
51740,26034
52467,26034
52467,26151
51740,26151
" /> 
<polyline style="fill-rule:evenodd;"
points="51740,25836
51740,25719
52467,25719
52467,25836
51740,25836
" /> 
<polyline style="fill-rule:evenodd;"
points="51740,25521
51740,25404
52467,25404
52467,25521
51740,25521
" /> 
<polyline style="fill-rule:evenodd;"
points="51740,25206
51740,25089
52467,25089
52467,25206
51740,25206
" /> 
<polyline style="fill-rule:evenodd;"
points="51740,24891
51740,24774
52467,24774
52467,24891
51740,24891
" /> 
<polyline style="fill-rule:evenodd;"
points="51740,24576
51740,24459
52467,24459
52467,24576
51740,24576
" /> 
<polyline style="fill-rule:evenodd;"
points="51740,24261
51740,24144
52467,24144
52467,24261
51740,24261
" /> 
<polyline style="fill-rule:evenodd;"
points="51740,23946
51740,23829
52467,23829
52467,23946
51740,23946
" /> 
<polyline style="fill-rule:evenodd;"
points="55506,23948
55506,23831
56233,23831
56233,23948
55506,23948
" /> 
<polyline style="fill-rule:evenodd;"
points="55506,26158
55506,26041
56233,26041
56233,26158
55506,26158
" /> 
<polyline style="fill-rule:evenodd;"
points="55506,25838
55506,25721
56233,25721
56233,25838
55506,25838
" /> 
<polyline style="fill-rule:evenodd;"
points="55506,25518
55506,25401
56233,25401
56233,25518
55506,25518
" /> 
<polyline style="fill-rule:evenodd;"
points="55506,25208
55506,25091
56233,25091
56233,25208
55506,25208
" /> 
<polyline style="fill-rule:evenodd;"
points="55506,24888
55506,24771
56233,24771
56233,24888
55506,24888
" /> 
<polyline style="fill-rule:evenodd;"
points="55506,24578
55506,24461
56233,24461
56233,24578
55506,24578
" /> 
<polyline style="fill-rule:evenodd;"
points="55506,24258
55506,24141
56233,24141
56233,24258
55506,24258
" /> 
<polyline style="fill-rule:evenodd;"
points="52829,23463
52829,22736
52946,22736
52946,23463
52829,23463
" /> 
<polyline style="fill-rule:evenodd;"
points="53143,23463
53143,22736
53260,22736
53260,23463
53143,23463
" /> 
<polyline style="fill-rule:evenodd;"
points="53459,23463
53459,22736
53576,22736
53576,23463
53459,23463
" /> 
<polyline style="fill-rule:evenodd;"
points="53773,23463
53773,22736
53890,22736
53890,23463
53773,23463
" /> 
<polyline style="fill-rule:evenodd;"
points="54089,23463
54089,22736
54206,22736
54206,23463
54089,23463
" /> 
<polyline style="fill-rule:evenodd;"
points="54403,23463
54403,22736
54520,22736
54520,23463
54403,23463
" /> 
<polyline style="fill-rule:evenodd;"
points="54719,23463
54719,22736
54836,22736
54836,23463
54719,23463
" /> 
<polyline style="fill-rule:evenodd;"
points="55033,23463
55033,22736
55150,22736
55150,23463
55033,23463
" /> 
<polyline style="fill-rule:evenodd;"
points="52831,27243
52831,26516
52948,26516
52948,27243
52831,27243
" /> 
<polyline style="fill-rule:evenodd;"
points="53141,27243
53141,26516
53258,26516
53258,27243
53141,27243
" /> 
<polyline style="fill-rule:evenodd;"
points="53461,27243
53461,26516
53578,26516
53578,27243
53461,27243
" /> 
<polyline style="fill-rule:evenodd;"
points="53771,27243
53771,26516
53888,26516
53888,27243
53771,27243
" /> 
<polyline style="fill-rule:evenodd;"
points="54081,27243
54081,26516
54198,26516
54198,27243
54081,27243
" /> 
<polyline style="fill-rule:evenodd;"
points="54401,27243
54401,26516
54518,26516
54518,27243
54401,27243
" /> 
<polyline style="fill-rule:evenodd;"
points="54721,27243
54721,26516
54838,26516
54838,27243
54721,27243
" /> 
<polyline style="fill-rule:evenodd;"
points="55041,27243
55041,26516
55158,26516
55158,27243
55041,27243
" /> 
<circle cx="63100" cy="25750" r="720.472" /> 
<circle cx="63100" cy="15750" r="720.472" /> 
<polyline style="fill-rule:evenodd;"
points="61829,18279
62370,18279
62370,18820
61829,18820
61829,18279
" /> 
<circle cx="62100" cy="19650" r="270.472" /> 
<circle cx="62100" cy="20700" r="270.472" /> 
<circle cx="62100" cy="21800" r="270.472" /> 
<circle cx="62100" cy="22900" r="270.472" /> 
<circle cx="63100" cy="19100" r="270.472" /> 
<circle cx="63100" cy="20200" r="270.472" /> 
<circle cx="63100" cy="21250" r="270.472" /> 
<circle cx="63100" cy="22350" r="270.472" /> 
<polyline style="fill-rule:evenodd;"
points="44770,15829
44770,16370
44229,16370
44229,15829
44770,15829
" /> 
<circle cx="43500" cy="16100" r="270.472" /> 
<circle cx="42500" cy="16100" r="270.472" /> 
<polyline style="fill-rule:evenodd;"
points="47770,15829
47770,16370
47229,16370
47229,15829
47770,15829
" /> 
<circle cx="46500" cy="16100" r="270.472" /> 
<circle cx="45500" cy="16100" r="270.472" /> 
<polyline style="fill-rule:evenodd;"
points="50970,26629
50970,27170
50429,27170
50429,26629
50970,26629
" /> 
<circle cx="49700" cy="26900" r="270.472" /> 
<circle cx="48700" cy="26900" r="270.472" /> 
<polyline style="fill-rule:evenodd;"
points="48829,18870
48829,18329
49370,18329
49370,18870
48829,18870
" /> 
<circle cx="49100" cy="17600" r="270.472" /> 
<circle cx="50100" cy="18600" r="270.472" /> 
<circle cx="50100" cy="17600" r="270.472" /> 
<polyline style="fill-rule:evenodd;"
points="47745,14854
47745,15345
47254,15345
47254,14854
47745,14854
" /> 
<circle cx="46500" cy="15100" r="245.472" /> 
<circle cx="45500" cy="15100" r="245.472" /> 
<circle cx="44500" cy="15100" r="245.472" /> 
<circle cx="43500" cy="15100" r="245.472" /> 
<polyline style="fill-rule:evenodd;"
points="60870,29879
60870,31320
60329,31320
60329,29879
60870,29879
" /> 
<polyline style="fill-rule:evenodd;"
points="59870,29879
59870,31320
59329,31320
59329,29879
59870,29879
" /> 
<polyline style="fill-rule:evenodd;"
points="58870,29879
58870,31320
58329,31320
58329,29879
58870,29879
" /> 
<polyline style="fill-rule:evenodd;"
points="57870,29879
57870,31320
57329,31320
57329,29879
57870,29879
" /> 
<polyline style="fill-rule:evenodd;"
points="56870,29879
56870,31320
56329,31320
56329,29879
56870,29879
" /> 
<polyline style="fill-rule:evenodd;"
points="61045,28645
60554,28645
60554,28154
61045,28154
61045,28645
" /> 
<circle cx="60800" cy="27400" r="245.472" /> 
<circle cx="60800" cy="26400" r="245.472" /> 
<circle cx="60800" cy="25400" r="245.472" /> 
<circle cx="60800" cy="24400" r="245.472" /> 
<circle cx="60800" cy="23400" r="245.472" /> 
<circle cx="60800" cy="22400" r="245.472" /> 
<circle cx="60800" cy="21400" r="245.472" /> 
<polyline style="fill-rule:evenodd;"
points="53445,20954
53445,21445
52954,21445
52954,20954
53445,20954
" /> 
<circle cx="52200" cy="21200" r="245.472" /> 
<polyline style="fill-rule:evenodd;"
points="42254,15345
42254,14854
42745,14854
42745,15345
42254,15345
" /> 
<polyline style="fill-rule:evenodd;"
points="62754,29079
63245,29079
63245,29370
62754,29370
62754,29079
" /> 
<polyline style="fill-rule:evenodd;"
points="62754,29829
63245,29829
63245,30120
62754,30120
62754,29829
" /> 
<polyline style="fill-rule:evenodd;"
points="47654,28579
48145,28579
48145,28870
47654,28870
47654,28579
" /> 
<polyline style="fill-rule:evenodd;"
points="47654,29329
48145,29329
48145,29620
47654,29620
47654,29329
" /> 
<polyline style="fill-rule:evenodd;"
points="46654,28579
47145,28579
47145,28870
46654,28870
46654,28579
" /> 
<polyline style="fill-rule:evenodd;"
points="46654,29329
47145,29329
47145,29620
46654,29620
46654,29329
" /> 
<polyline style="fill-rule:evenodd;"
points="45654,28579
46145,28579
46145,28870
45654,28870
45654,28579
" /> 
<polyline style="fill-rule:evenodd;"
points="45654,29329
46145,29329
46145,29620
45654,29620
45654,29329
" /> 
<polyline style="fill-rule:evenodd;"
points="44654,28579
45145,28579
45145,28870
44654,28870
44654,28579
" /> 
<polyline style="fill-rule:evenodd;"
points="44654,29329
45145,29329
45145,29620
44654,29620
44654,29329
" /> 
<polyline style="fill-rule:evenodd;"
points="43654,28579
44145,28579
44145,28870
43654,28870
43654,28579
" /> 
<polyline style="fill-rule:evenodd;"
points="43654,29329
44145,29329
44145,29620
43654,29620
43654,29329
" /> 
<polyline style="fill-rule:evenodd;"
points="49920,28854
49920,29345
49629,29345
49629,28854
49920,28854
" /> 
<polyline style="fill-rule:evenodd;"
points="49170,28854
49170,29345
48879,29345
48879,28854
49170,28854
" /> 
<polyline style="fill-rule:evenodd;"
points="54145,19820
53654,19820
53654,19529
54145,19529
54145,19820
" /> 
<polyline style="fill-rule:evenodd;"
points="54145,19070
53654,19070
53654,18779
54145,18779
54145,19070
" /> 
<polyline style="fill-rule:evenodd;"
points="53245,19820
52754,19820
52754,19529
53245,19529
53245,19820
" /> 
<polyline style="fill-rule:evenodd;"
points="53245,19070
52754,19070
52754,18779
53245,18779
53245,19070
" /> 
<polyline style="fill-rule:evenodd;"
points="55179,19045
55179,18554
55470,18554
55470,19045
55179,19045
" /> 
<polyline style="fill-rule:evenodd;"
points="55929,19045
55929,18554
56220,18554
56220,19045
55929,19045
" /> 
<circle cx="64700" cy="29200" r="245.472" /> 
<circle cx="64700" cy="31200" r="245.472" /> 
<circle cx="61700" cy="29200" r="245.472" /> 
<circle cx="61700" cy="31200" r="245.472" /> 
<polyline style="fill-rule:evenodd;"
points="46829,19504
47970,19504
47970,20095
46829,20095
46829,19504
" /> 
<polyline style="fill-rule:evenodd;"
points="48729,19529
51070,19529
51070,21870
48729,21870
48729,19529
" /> 
<polyline style="fill-rule:evenodd;"
points="46829,21304
47970,21304
47970,21895
46829,21895
46829,21304
" /> 
<polyline style="fill-rule:evenodd;"
points="61120,17604
61120,17995
60979,17995
60979,17604
61120,17604
" /> 
<polyline style="fill-rule:evenodd;"
points="60620,17604
60620,17995
60479,17995
60479,17604
60620,17604
" /> 
<polyline style="fill-rule:evenodd;"
points="60120,17604
60120,17995
59979,17995
59979,17604
60120,17604
" /> 
<polyline style="fill-rule:evenodd;"
points="59620,17604
59620,17995
59479,17995
59479,17604
59620,17604
" /> 
<polyline style="fill-rule:evenodd;"
points="59120,17604
59120,17995
58979,17995
58979,17604
59120,17604
" /> 
<polyline style="fill-rule:evenodd;"
points="58620,17604
58620,17995
58479,17995
58479,17604
58620,17604
" /> 
<polyline style="fill-rule:evenodd;"
points="58120,17604
58120,17995
57979,17995
57979,17604
58120,17604
" /> 
<polyline style="fill-rule:evenodd;"
points="57620,17604
57620,17995
57479,17995
57479,17604
57620,17604
" /> 
<polyline style="fill-rule:evenodd;"
points="57620,19604
57620,19995
57479,19995
57479,19604
57620,19604
" /> 
<polyline style="fill-rule:evenodd;"
points="58120,19604
58120,19995
57979,19995
57979,19604
58120,19604
" /> 
<polyline style="fill-rule:evenodd;"
points="58620,19604
58620,19995
58479,19995
58479,19604
58620,19604
" /> 
<polyline style="fill-rule:evenodd;"
points="59120,19604
59120,19995
58979,19995
58979,19604
59120,19604
" /> 
<polyline style="fill-rule:evenodd;"
points="59620,19604
59620,19995
59479,19995
59479,19604
59620,19604
" /> 
<polyline style="fill-rule:evenodd;"
points="60120,19604
60120,19995
59979,19995
59979,19604
60120,19604
" /> 
<polyline style="fill-rule:evenodd;"
points="60620,19604
60620,19995
60479,19995
60479,19604
60620,19604
" /> 
<polyline style="fill-rule:evenodd;"
points="61120,19604
61120,19995
60979,19995
60979,19604
61120,19604
" /> 
<polyline style="fill-rule:evenodd;"
points="55745,30754
55745,31245
55254,31245
55254,30754
55745,30754
" /> 
<circle cx="54500" cy="31000" r="245.472" /> 
<circle cx="53500" cy="31000" r="245.472" /> 
<circle cx="52500" cy="31000" r="245.472" /> 
<polyline style="fill-rule:evenodd;"
points="52229,29770
52229,29229
52770,29229
52770,29770
52229,29770
" /> 
<circle cx="52500" cy="28500" r="270.472" /> 
<circle cx="53500" cy="29500" r="270.472" /> 
<circle cx="53500" cy="28500" r="270.472" /> 
<circle cx="54500" cy="29500" r="270.472" /> 
<circle cx="54500" cy="28500" r="270.472" /> 
<circle cx="55500" cy="29500" r="270.472" /> 
<circle cx="55500" cy="28500" r="270.472" /> 
<polyline style="fill-rule:evenodd;"
points="60548,16265
60548,15734
61001,15734
61001,16265
60548,16265
" /> 
<polyline style="fill-rule:evenodd;"
points="59798,16265
59798,15734
60251,15734
60251,16265
59798,16265
" /> 
<polyline style="fill-rule:evenodd;"
points="59348,17165
59348,16634
59801,16634
59801,17165
59348,17165
" /> 
<polyline style="fill-rule:evenodd;"
points="58598,17165
58598,16634
59051,16634
59051,17165
58598,17165
" /> 
<polyline style="fill-rule:evenodd;"
points="48365,18151
47834,18151
47834,17698
48365,17698
48365,18151
" /> 
<polyline style="fill-rule:evenodd;"
points="48365,18901
47834,18901
47834,18448
48365,18448
48365,18901
" /> 
<polyline style="fill-rule:evenodd;"
points="61048,17165
61048,16634
61501,16634
61501,17165
61048,17165
" /> 
<polyline style="fill-rule:evenodd;"
points="60298,17165
60298,16634
60751,16634
60751,17165
60298,17165
" /> 
<polyline style="fill-rule:evenodd;"
points="57551,16634
57551,17165
57098,17165
57098,16634
57551,16634
" /> 
<polyline style="fill-rule:evenodd;"
points="58301,16634
58301,17165
57848,17165
57848,16634
58301,16634
" /> 
<polyline style="fill-rule:evenodd;"
points="57765,24851
57234,24851
57234,24398
57765,24398
57765,24851
" /> 
<polyline style="fill-rule:evenodd;"
points="57765,25601
57234,25601
57234,25148
57765,25148
57765,25601
" /> 
<polyline style="fill-rule:evenodd;"
points="58420,26154
58420,26645
58129,26645
58129,26154
58420,26154
" /> 
<polyline style="fill-rule:evenodd;"
points="57670,26154
57670,26645
57379,26645
57379,26154
57670,26154
" /> 
<polyline style="fill-rule:evenodd;"
points="43654,31320
43654,29879
44145,29879
44145,31320
43654,31320
" /> 
<polyline style="fill-rule:evenodd;"
points="44654,31320
44654,29879
45145,29879
45145,31320
44654,31320
" /> 
<polyline style="fill-rule:evenodd;"
points="45654,31320
45654,29879
46145,29879
46145,31320
45654,31320
" /> 
<polyline style="fill-rule:evenodd;"
points="46654,31320
46654,29879
47145,29879
47145,31320
46654,31320
" /> 
<polyline style="fill-rule:evenodd;"
points="47654,31320
47654,29879
48145,29879
48145,31320
47654,31320
" /> 
<polyline style="fill-rule:evenodd;"
points="48654,31320
48654,29879
49145,29879
49145,31320
48654,31320
" /> 
<polyline style="fill-rule:evenodd;"
points="49654,31320
49654,29879
50145,29879
50145,31320
49654,31320
" /> 
<polyline style="fill-rule:evenodd;"
points="50654,31320
50654,29879
51145,29879
51145,31320
50654,31320
" /> 
<polyline style="fill-rule:evenodd;"
points="48829,16370
48829,15829
49370,15829
49370,16370
48829,16370
" /> 
<circle cx="49100" cy="15100" r="270.472" /> 
<circle cx="50100" cy="16100" r="270.472" /> 
<circle cx="50100" cy="15100" r="270.472" /> 
<circle cx="48900" cy="25200" r="320.472" /> 
<circle cx="48900" cy="23200" r="320.472" /> 
<circle cx="43800" cy="26000" r="915.472" /> 
<polyline style="fill-rule:evenodd;"
points="45284,26915
45284,25084
47115,25084
47115,26915
45284,26915
" /> 
<circle cx="44700" cy="24000" r="915.472" /> 
<polyline style="fill-rule:evenodd;"
points="44526,18485
44526,17914
45491,17914
45491,18485
44526,18485
" /> 
<polyline style="fill-rule:evenodd;"
points="43108,18485
43108,17914
44073,17914
44073,18485
43108,18485
" /> 
<polyline style="fill-rule:evenodd;"
points="53861,17134
53998,17134
53998,17981
53861,17981
53861,17134
" /> 
<polyline style="fill-rule:evenodd;"
points="53546,17134
53683,17134
53683,17981
53546,17981
53546,17134
" /> 
<polyline style="fill-rule:evenodd;"
points="53231,17134
53368,17134
53368,17981
53231,17981
53231,17134
" /> 
<polyline style="fill-rule:evenodd;"
points="52916,17134
53053,17134
53053,17981
52916,17981
52916,17134
" /> 
<polyline style="fill-rule:evenodd;"
points="52601,17134
52738,17134
52738,17981
52601,17981
52601,17134
" /> 
<polyline style="fill-rule:evenodd;"
points="54688,17056
55415,17056
55415,17981
54688,17981
54688,17056
" /> 
<polyline style="fill-rule:evenodd;"
points="54688,14891
55415,14891
55415,15816
54688,15816
54688,14891
" /> 
<polyline style="fill-rule:evenodd;"
points="51184,17056
51911,17056
51911,17981
51184,17981
51184,17056
" /> 
<polyline style="fill-rule:evenodd;"
points="51184,14891
51911,14891
51911,15816
51184,15816
51184,14891
" /> 
<circle cx="48900" cy="30600" r="246.063" /> 
<circle cx="44900" cy="28000" r="167.323" /> 
<circle cx="50500" cy="28900" r="167.323" /> 
<circle cx="53600" cy="24100" r="167.323" /> 
<circle cx="54200" cy="25200" r="167.323" /> 
<circle cx="58100" cy="27300" r="167.323" /> 
<circle cx="55300" cy="27300" r="167.323" /> 
<circle cx="51600" cy="28100" r="167.323" /> 
<circle cx="56600" cy="27700" r="167.323" /> 
<circle cx="54500" cy="28000" r="167.323" /> 
<circle cx="58600" cy="29500" r="167.323" /> 
<circle cx="60800" cy="29300" r="246.063" /> 
<circle cx="56100" cy="26500" r="167.323" /> 
<circle cx="54500" cy="23900" r="246.063" /> 
<circle cx="58900" cy="28700" r="167.323" /> 
<circle cx="54700" cy="30100" r="246.063" /> 
<circle cx="53300" cy="22000" r="167.323" /> 
<circle cx="54300" cy="21300" r="167.323" /> 
<circle cx="48100" cy="17900" r="246.063" /> 
<circle cx="49900" cy="20700" r="246.063" /> 
<circle cx="45100" cy="20700" r="246.063" /> 
<circle cx="54400" cy="20400" r="246.063" /> 
<circle cx="51600" cy="20400" r="167.323" /> 
<circle cx="56700" cy="20000" r="167.323" /> 
<circle cx="51900" cy="26600" r="246.063" /> 
<circle cx="51400" cy="29600" r="246.063" /> 
<circle cx="60200" cy="19000" r="246.063" /> 
<circle cx="61600" cy="22500" r="246.063" /> 
<circle cx="61900" cy="30400" r="246.063" /> 
<circle cx="57000" cy="24800" r="167.323" /> 
<circle cx="47900" cy="30500" r="246.063" /> 
<circle cx="61300" cy="15900" r="246.063" /> 
<circle cx="60800" cy="18400" r="246.063" /> 
<circle cx="46900" cy="30600" r="246.063" /> 
<circle cx="44400" cy="27700" r="167.323" /> 
<circle cx="45900" cy="30600" r="246.063" /> 
<circle cx="43900" cy="30600" r="246.063" /> 
<circle cx="47500" cy="17400" r="246.063" /> 
<circle cx="47400" cy="19800" r="246.063" /> 
<circle cx="51200" cy="25100" r="167.323" /> 
<circle cx="61700" cy="26900" r="167.323" /> 
<circle cx="59100" cy="27400" r="246.063" /> 
</g>
<g style="fill:#000000; fill-opacity:1.0; 
stroke:#000000; stroke-width:150; stroke-opacity:1; 
stroke-linecap:round; stroke-linejoin:round;">
<path d="M47400 21600
L47600 21600
" />
<path d="M48300 18875
L48100 18675
" />
<path d="M48300 20900
L48300 18875
" />
<path d="M47600 21600
L48300 20900
" />
</g>
<g style="fill:#000000; fill-opacity:1.0; 
stroke:#000000; stroke-width:300; stroke-opacity:1; 
stroke-linecap:round; stroke-linejoin:round;">
<path d="M48100 18675
L49025 18675
" />
<path d="M49025 18675
L49100 18600
" />
<path d="M44500 16100
L44500 16500
" />
<path d="M47575 18675
L48100 18675
" />
<path d="M47400 18500
L47575 18675
" />
<path d="M47400 18300
L47400 18500
" />
<path d="M46000 16900
L47400 18300
" />
<path d="M44900 16900
L46000 16900
" />
<path d="M44500 16500
L44900 16900
" />
<path d="M43500 16100
L44500 16100
" />
<path d="M42500 16100
L43500 16100
" />
</g>
<g style="fill:#000000; fill-opacity:1.0; 
stroke:#000000; stroke-width:150; stroke-opacity:1; 
stroke-linecap:round; stroke-linejoin:round;">
<path d="M49025 30475
L48900 30600
" />
<path d="M49025 29100
L49025 30475
" />
</g>
<g style="fill:#000000; fill-opacity:1.0; 
stroke:#000000; stroke-width:120; stroke-opacity:1; 
stroke-linecap:round; stroke-linejoin:round;">
<path d="M49025 29100
L49025 28775
" />
<path d="M49300 28500
L52500 28500
" />
<path d="M49025 28775
L49300 28500
" />
<path d="M48900 29225
L49025 29100
" />
</g>
<g style="fill:#000000; fill-opacity:1.0; 
stroke:#000000; stroke-width:100; stroke-opacity:1; 
stroke-linecap:round; stroke-linejoin:round;">
<path d="M48900 29225
L49025 29100
" />
</g>
<g style="fill:#000000; fill-opacity:1.0; 
stroke:#000000; stroke-width:150; stroke-opacity:1; 
stroke-linecap:round; stroke-linejoin:round;">
<path d="M50100 18600
L50200 18600
" />
<path d="M49400 15100
L49100 15100
" />
<path d="M49600 15300
L49400 15100
" />
<path d="M49600 16600
L49600 15300
" />
<path d="M49800 16800
L49600 16600
" />
<path d="M50500 16800
L49800 16800
" />
<path d="M50800 17100
L50500 16800
" />
<path d="M50800 18000
L50800 17100
" />
<path d="M50200 18600
L50800 18000
" />
</g>
<g style="fill:#000000; fill-opacity:1.0; 
stroke:#000000; stroke-width:300; stroke-opacity:1; 
stroke-linecap:round; stroke-linejoin:round;">
<path d="M47500 16100
L47800 16100
" />
<path d="M48800 15100
L49100 15100
" />
<path d="M47800 16100
L48800 15100
" />
<path d="M46500 16100
L47500 16100
" />
<path d="M45500 16100
L46500 16100
" />
</g>
<g style="fill:#000000; fill-opacity:1.0; 
stroke:#000000; stroke-width:100; stroke-opacity:1; 
stroke-linecap:round; stroke-linejoin:round;">
<path d="M55870 25150
L57275 25150
" />
</g>
<g style="fill:#000000; fill-opacity:1.0; 
stroke:#000000; stroke-width:120; stroke-opacity:1; 
stroke-linecap:round; stroke-linejoin:round;">
<path d="M57275 25150
L57500 25375
" />
<path d="M57100 26400
L57525 26400
" />
<path d="M55870 25780
L56480 25780
" />
</g>
<g style="fill:#000000; fill-opacity:1.0; 
stroke:#000000; stroke-width:100; stroke-opacity:1; 
stroke-linecap:round; stroke-linejoin:round;">
<path d="M57100 26400
L57125 26400
" />
</g>
<g style="fill:#000000; fill-opacity:1.0; 
stroke:#000000; stroke-width:120; stroke-opacity:1; 
stroke-linecap:round; stroke-linejoin:round;">
<path d="M56480 25780
L57100 26400
" />
<path d="M44900 28000
L44900 28725
" />
<path d="M53500 29500
L53000 29000
" />
</g>
<g style="fill:#000000; fill-opacity:1.0; 
stroke:#000000; stroke-width:100; stroke-opacity:1; 
stroke-linecap:round; stroke-linejoin:round;">
<path d="M53800 26910
L53830 26880
" />
</g>
<g style="fill:#000000; fill-opacity:1.0; 
stroke:#000000; stroke-width:120; stroke-opacity:1; 
stroke-linecap:round; stroke-linejoin:round;">
<path d="M53800 27400
L53800 26910
" />
<path d="M53000 28200
L53800 27400
" />
</g>
<g style="fill:#000000; fill-opacity:1.0; 
stroke:#000000; stroke-width:100; stroke-opacity:1; 
stroke-linecap:round; stroke-linejoin:round;">
<path d="M50600 29000
L50500 28900
" />
</g>
<g style="fill:#000000; fill-opacity:1.0; 
stroke:#000000; stroke-width:120; stroke-opacity:1; 
stroke-linecap:round; stroke-linejoin:round;">
<path d="M53000 29000
L50600 29000
" />
<path d="M53000 29000
L53000 28200
" />
<path d="M54140 26880
L54140 27460
" />
<path d="M53500 28100
L53500 28500
" />
<path d="M54140 27460
L53500 28100
" />
<path d="M60800 26400
L60700 26300
" />
<path d="M56600 24200
L55870 24200
" />
<path d="M57000 23800
L56600 24200
" />
<path d="M58100 23800
L57000 23800
" />
<path d="M58500 24200
L58100 23800
" />
<path d="M58500 25100
L58500 24200
" />
<path d="M58700 25300
L58500 25100
" />
<path d="M58900 25300
L58700 25300
" />
<path d="M59400 25800
L58900 25300
" />
<path d="M60000 25800
L59400 25800
" />
<path d="M60700 26300
L60000 25800
" />
<path d="M60800 25400
L59400 25400
" />
<path d="M56310 23890
L55870 23890
" />
<path d="M56700 23500
L56310 23890
" />
<path d="M58200 23500
L56700 23500
" />
<path d="M58800 24100
L58200 23500
" />
<path d="M58800 24900
L58800 24100
" />
<path d="M58900 25000
L58800 24900
" />
<path d="M59000 25000
L58900 25000
" />
<path d="M59400 25400
L59000 25000
" />
<path d="M60800 24400
L59500 24400
" />
<path d="M58200 23100
L55092 23100
" />
<path d="M59500 24400
L58200 23100
" />
<path d="M60800 23400
L58900 23400
" />
<path d="M54778 22522
L54778 23100
" />
<path d="M54900 22400
L54778 22522
" />
<path d="M55300 22400
L54900 22400
" />
<path d="M55700 22800
L55300 22400
" />
<path d="M58300 22800
L55700 22800
" />
<path d="M58900 23400
L58300 22800
" />
<path d="M60800 22400
L56000 22400
" />
<path d="M54462 22338
L54462 23100
" />
<path d="M54700 22100
L54462 22338
" />
<path d="M55700 22100
L54700 22100
" />
<path d="M56000 22400
L55700 22100
" />
<path d="M54700 21700
L54600 21700
" />
<path d="M60600 21400
L59900 22100
" />
<path d="M59900 22100
L56200 22100
" />
<path d="M56200 22100
L55800 21700
" />
<path d="M55800 21700
L54700 21700
" />
<path d="M60800 21400
L60600 21400
" />
<path d="M54148 22152
L54148 23100
" />
<path d="M54600 21700
L54148 22152
" />
<path d="M50700 26900
L50700 26800
" />
<path d="M45900 28300
L45900 28725
" />
<path d="M46300 27900
L45900 28300
" />
<path d="M47500 27900
L46300 27900
" />
<path d="M47900 27500
L47500 27900
" />
<path d="M47900 26600
L47900 27500
" />
<path d="M48200 26300
L47900 26600
" />
<path d="M50200 26300
L48200 26300
" />
<path d="M50700 26800
L50200 26300
" />
<path d="M52890 26880
L52520 26880
" />
<path d="M50900 27100
L50700 26900
" />
<path d="M52300 27100
L50900 27100
" />
<path d="M52520 26880
L52300 27100
" />
</g>
<g style="fill:#000000; fill-opacity:1.0; 
stroke:#000000; stroke-width:100; stroke-opacity:1; 
stroke-linecap:round; stroke-linejoin:round;">
<path d="M53000 19675
L53000 20300
" />
</g>
<g style="fill:#000000; fill-opacity:1.0; 
stroke:#000000; stroke-width:120; stroke-opacity:1; 
stroke-linecap:round; stroke-linejoin:round;">
<path d="M52200 21100
L52200 21200
" />
<path d="M53000 20300
L52200 21100
" />
<path d="M52200 21200
L52200 23792
" />
<path d="M52200 23792
L52104 23888
" />
<path d="M53900 19675
L53900 21900
" />
</g>
<g style="fill:#000000; fill-opacity:1.0; 
stroke:#000000; stroke-width:100; stroke-opacity:1; 
stroke-linecap:round; stroke-linejoin:round;">
<path d="M53518 22282
L53518 23100
" />
<path d="M53900 21900
L53518 22282
" />
</g>
<g style="fill:#000000; fill-opacity:1.0; 
stroke:#000000; stroke-width:120; stroke-opacity:1; 
stroke-linecap:round; stroke-linejoin:round;">
<path d="M53900 19675
L54025 19675
" />
<path d="M58550 19450
L58550 19800
" />
<path d="M58300 19200
L58550 19450
" />
<path d="M57100 19200
L58300 19200
" />
<path d="M56700 19600
L57100 19200
" />
<path d="M54100 19600
L56700 19600
" />
</g>
<g style="fill:#000000; fill-opacity:1.0; 
stroke:#000000; stroke-width:100; stroke-opacity:1; 
stroke-linecap:round; stroke-linejoin:round;">
<path d="M54025 19675
L54100 19600
" />
<path d="M53200 21200
L53200 21300
" />
</g>
<g style="fill:#000000; fill-opacity:1.0; 
stroke:#000000; stroke-width:120; stroke-opacity:1; 
stroke-linecap:round; stroke-linejoin:round;">
<path d="M52888 21612
L52888 23100
" />
<path d="M53200 21300
L52888 21612
" />
<path d="M55500 28500
L55500 28000
" />
<path d="M52888 23588
L52888 23100
" />
<path d="M53200 23900
L52888 23588
" />
<path d="M53400 23900
L53200 23900
" />
</g>
<g style="fill:#000000; fill-opacity:1.0; 
stroke:#000000; stroke-width:100; stroke-opacity:1; 
stroke-linecap:round; stroke-linejoin:round;">
<path d="M53600 24100
L53400 23900
" />
<path d="M55700 26700
L54200 25200
" />
</g>
<g style="fill:#000000; fill-opacity:1.0; 
stroke:#000000; stroke-width:120; stroke-opacity:1; 
stroke-linecap:round; stroke-linejoin:round;">
<path d="M55700 27800
L55700 26700
" />
<path d="M55500 28000
L55700 27800
" />
<path d="M55100 26880
L55100 27700
" />
</g>
<g style="fill:#000000; fill-opacity:1.0; 
stroke:#000000; stroke-width:100; stroke-opacity:1; 
stroke-linecap:round; stroke-linejoin:round;">
<path d="M55100 27700
L55000 27800
" />
</g>
<g style="fill:#000000; fill-opacity:1.0; 
stroke:#000000; stroke-width:120; stroke-opacity:1; 
stroke-linecap:round; stroke-linejoin:round;">
<path d="M55000 27800
L55000 29100
" />
<path d="M55000 29100
L55400 29500
" />
<path d="M55400 29500
L55500 29500
" />
<path d="M54500 31000
L55100 30400
" />
<path d="M55500 30000
L55500 29500
" />
<path d="M55100 30400
L55500 30000
" />
<path d="M60600 30600
L60600 29800
" />
<path d="M60600 29800
L58100 27300
" />
</g>
<g style="fill:#000000; fill-opacity:1.0; 
stroke:#000000; stroke-width:100; stroke-opacity:1; 
stroke-linecap:round; stroke-linejoin:round;">
<path d="M55100 27100
L55100 26880
" />
</g>
<g style="fill:#000000; fill-opacity:1.0; 
stroke:#000000; stroke-width:120; stroke-opacity:1; 
stroke-linecap:round; stroke-linejoin:round;">
<path d="M55300 27300
L55100 27100
" />
<path d="M46900 28725
L46900 28600
" />
<path d="M51500 28200
L51600 28100
" />
<path d="M47300 28200
L51500 28200
" />
<path d="M46900 28600
L47300 28200
" />
<path d="M55500 31000
L56200 31000
" />
<path d="M56200 31000
L56600 30600
" />
<path d="M56600 30600
L56600 27700
" />
<path d="M54500 28000
L54500 28500
" />
</g>
<g style="fill:#000000; fill-opacity:1.0; 
stroke:#000000; stroke-width:100; stroke-opacity:1; 
stroke-linecap:round; stroke-linejoin:round;">
<path d="M54500 28500
L54500 27900
" />
</g>
<g style="fill:#000000; fill-opacity:1.0; 
stroke:#000000; stroke-width:120; stroke-opacity:1; 
stroke-linecap:round; stroke-linejoin:round;">
<path d="M54780 27620
L54780 26880
" />
<path d="M54500 27900
L54780 27620
" />
</g>
<g style="fill:#000000; fill-opacity:1.0; 
stroke:#000000; stroke-width:100; stroke-opacity:1; 
stroke-linecap:round; stroke-linejoin:round;">
<path d="M52104 24203
L52101 24200
" />
</g>
<g style="fill:#000000; fill-opacity:1.0; 
stroke:#000000; stroke-width:120; stroke-opacity:1; 
stroke-linecap:round; stroke-linejoin:round;">
<path d="M43900 27600
L43900 28725
" />
<path d="M52101 24200
L51500 24200
" />
<path d="M44200 27300
L43900 27600
" />
<path d="M44800 27300
L44200 27300
" />
<path d="M45100 27600
L44800 27300
" />
<path d="M47000 27600
L45100 27600
" />
<path d="M47500 27100
L47000 27600
" />
<path d="M47500 26400
L47500 27100
" />
<path d="M47800 26100
L47500 26400
" />
</g>
<g style="fill:#000000; fill-opacity:1.0; 
stroke:#000000; stroke-width:100; stroke-opacity:1; 
stroke-linecap:round; stroke-linejoin:round;">
<path d="M47800 26000
L47800 26100
" />
</g>
<g style="fill:#000000; fill-opacity:1.0; 
stroke:#000000; stroke-width:120; stroke-opacity:1; 
stroke-linecap:round; stroke-linejoin:round;">
<path d="M47800 23000
L47800 26000
" />
<path d="M48300 22500
L47800 23000
" />
<path d="M48400 22500
L48300 22500
" />
<path d="M49300 22500
L48400 22500
" />
<path d="M50400 23600
L49300 22500
" />
<path d="M50500 23600
L50400 23600
" />
<path d="M51400 23600
L50500 23600
" />
<path d="M51400 24100
L51400 23600
" />
<path d="M51500 24200
L51400 24100
" />
<path d="M62100 20700
L61500 20700
" />
<path d="M59550 20450
L59550 19800
" />
<path d="M60000 20900
L59550 20450
" />
<path d="M61300 20900
L60000 20900
" />
<path d="M61500 20700
L61300 20900
" />
<path d="M61700 31200
L61700 31100
" />
</g>
<g style="fill:#000000; fill-opacity:1.0; 
stroke:#000000; stroke-width:100; stroke-opacity:1; 
stroke-linecap:round; stroke-linejoin:round;">
<path d="M58600 29500
L58600 29100
" />
</g>
<g style="fill:#000000; fill-opacity:1.0; 
stroke:#000000; stroke-width:120; stroke-opacity:1; 
stroke-linecap:round; stroke-linejoin:round;">
<path d="M61000 29300
L60800 29300
" />
<path d="M61300 29600
L61000 29300
" />
<path d="M61300 30700
L61300 29600
" />
<path d="M61700 31100
L61300 30700
" />
<path d="M64700 31200
L61700 31200
" />
<path d="M58600 30600
L58600 29100
" />
<path d="M58600 29100
L58600 29000
" />
<path d="M58600 29000
L56100 26500
" />
</g>
<g style="fill:#000000; fill-opacity:1.0; 
stroke:#000000; stroke-width:100; stroke-opacity:1; 
stroke-linecap:round; stroke-linejoin:round;">
<path d="M53832 23632
L53832 23100
" />
<path d="M54000 23800
L53832 23632
" />
<path d="M54400 23800
L54000 23800
" />
<path d="M54500 23900
L54400 23800
" />
</g>
<g style="fill:#000000; fill-opacity:1.0; 
stroke:#000000; stroke-width:120; stroke-opacity:1; 
stroke-linecap:round; stroke-linejoin:round;">
<path d="M47900 28725
L48225 28725
" />
</g>
<g style="fill:#000000; fill-opacity:1.0; 
stroke:#000000; stroke-width:100; stroke-opacity:1; 
stroke-linecap:round; stroke-linejoin:round;">
<path d="M53500 31200
L53500 31000
" />
<path d="M53100 31600
L53500 31200
" />
</g>
<g style="fill:#000000; fill-opacity:1.0; 
stroke:#000000; stroke-width:120; stroke-opacity:1; 
stroke-linecap:round; stroke-linejoin:round;">
<path d="M48600 31600
L53100 31600
" />
<path d="M48400 31400
L48600 31600
" />
<path d="M48400 28900
L48400 31400
" />
<path d="M48225 28725
L48400 28900
" />
<path d="M54500 29500
L54500 29900
" />
<path d="M54500 29900
L54700 30100
" />
</g>
<g style="fill:#000000; fill-opacity:1.0; 
stroke:#000000; stroke-width:100; stroke-opacity:1; 
stroke-linecap:round; stroke-linejoin:round;">
<path d="M53500 31000
L54300 30200
" />
</g>
<g style="fill:#000000; fill-opacity:1.0; 
stroke:#000000; stroke-width:120; stroke-opacity:1; 
stroke-linecap:round; stroke-linejoin:round;">
<path d="M54300 29700
L54500 29500
" />
<path d="M54300 30200
L54300 29700
" />
<path d="M59600 30600
L59600 29400
" />
<path d="M59600 29400
L58900 28700
" />
<path d="M56300 26100
L55870 26100
" />
<path d="M58900 28700
L56300 26100
" />
<path d="M54460 26880
L54460 27540
" />
</g>
<g style="fill:#000000; fill-opacity:1.0; 
stroke:#000000; stroke-width:100; stroke-opacity:1; 
stroke-linecap:round; stroke-linejoin:round;">
<path d="M52500 30500
L52500 31000
" />
</g>
<g style="fill:#000000; fill-opacity:1.0; 
stroke:#000000; stroke-width:120; stroke-opacity:1; 
stroke-linecap:round; stroke-linejoin:round;">
<path d="M52900 30100
L52500 30500
" />
<path d="M53800 30100
L52900 30100
" />
<path d="M54000 29900
L53800 30100
" />
<path d="M54000 28000
L54000 29900
" />
</g>
<g style="fill:#000000; fill-opacity:1.0; 
stroke:#000000; stroke-width:100; stroke-opacity:1; 
stroke-linecap:round; stroke-linejoin:round;">
<path d="M54460 27540
L54000 28000
" />
</g>
<g style="fill:#000000; fill-opacity:1.0; 
stroke:#000000; stroke-width:120; stroke-opacity:1; 
stroke-linecap:round; stroke-linejoin:round;">
<path d="M62100 19650
L62050 19650
" />
<path d="M60050 20450
L60050 19800
" />
<path d="M60200 20600
L60050 20450
" />
<path d="M61100 20600
L60200 20600
" />
<path d="M62050 19650
L61100 20600
" />
<path d="M59050 19800
L59050 20450
" />
<path d="M53202 22098
L53202 23100
" />
</g>
<g style="fill:#000000; fill-opacity:1.0; 
stroke:#000000; stroke-width:100; stroke-opacity:1; 
stroke-linecap:round; stroke-linejoin:round;">
<path d="M53300 22000
L53202 22098
" />
</g>
<g style="fill:#000000; fill-opacity:1.0; 
stroke:#000000; stroke-width:120; stroke-opacity:1; 
stroke-linecap:round; stroke-linejoin:round;">
<path d="M55200 20400
L54300 21300
" />
<path d="M59000 20400
L55200 20400
" />
</g>
<g style="fill:#000000; fill-opacity:1.0; 
stroke:#000000; stroke-width:100; stroke-opacity:1; 
stroke-linecap:round; stroke-linejoin:round;">
<path d="M59050 20450
L59000 20400
" />
</g>
<g style="fill:#000000; fill-opacity:1.0; 
stroke:#000000; stroke-width:120; stroke-opacity:1; 
stroke-linecap:round; stroke-linejoin:round;">
<path d="M52104 24518
L53018 24518
" />
<path d="M53100 24600
L53100 25148
" />
<path d="M53018 24518
L53100 24600
" />
</g>
<g style="fill:#000000; fill-opacity:1.0; 
stroke:#000000; stroke-width:150; stroke-opacity:1; 
stroke-linecap:round; stroke-linejoin:round;">
<path d="M52670 17558
L52670 18080
" />
<path d="M52670 18080
L52350 18400
" />
</g>
<g style="fill:#000000; fill-opacity:1.0; 
stroke:#000000; stroke-width:300; stroke-opacity:1; 
stroke-linecap:round; stroke-linejoin:round;">
<path d="M46200 26000
L46200 24900
" />
<path d="M44800 21000
L45100 20700
" />
<path d="M44800 21600
L44800 21000
" />
<path d="M45400 22200
L44800 21600
" />
<path d="M46700 23500
L45400 22200
" />
<path d="M46700 24400
L46700 23500
" />
<path d="M46200 24900
L46700 24400
" />
<path d="M45009 18200
L45009 20609
" />
<path d="M45009 20609
L45100 20700
" />
</g>
<g style="fill:#000000; fill-opacity:1.0; 
stroke:#000000; stroke-width:150; stroke-opacity:1; 
stroke-linecap:round; stroke-linejoin:round;">
<path d="M48100 17900
L48100 17925
" />
</g>
<g style="fill:#000000; fill-opacity:1.0; 
stroke:#000000; stroke-width:300; stroke-opacity:1; 
stroke-linecap:round; stroke-linejoin:round;">
<path d="M49900 20700
L50900 20700
" />
<path d="M50900 20700
L51600 20000
" />
<path d="M42500 15100
L43500 15100
" />
<path d="M43500 15100
L44500 15100
" />
<path d="M44500 15100
L45500 15100
" />
<path d="M45500 15100
L46500 15100
" />
<path d="M46500 15100
L47500 15100
" />
</g>
<g style="fill:#000000; fill-opacity:1.0; 
stroke:#000000; stroke-width:150; stroke-opacity:1; 
stroke-linecap:round; stroke-linejoin:round;">
<path d="M54600 20013
L54600 20200
" />
</g>
<g style="fill:#000000; fill-opacity:1.0; 
stroke:#000000; stroke-width:100; stroke-opacity:1; 
stroke-linecap:round; stroke-linejoin:round;">
<path d="M54600 20200
L54400 20400
" />
</g>
<g style="fill:#000000; fill-opacity:1.0; 
stroke:#000000; stroke-width:150; stroke-opacity:1; 
stroke-linecap:round; stroke-linejoin:round;">
<path d="M51600 20400
L51600 20200
" />
<path d="M51600 20200
L51600 20000
" />
<path d="M51600 20000
L51600 19800
" />
<path d="M54600 20013
L56687 20013
" />
</g>
<g style="fill:#000000; fill-opacity:1.0; 
stroke:#000000; stroke-width:100; stroke-opacity:1; 
stroke-linecap:round; stroke-linejoin:round;">
<path d="M56687 20013
L56700 20000
" />
<path d="M51500 29600
L51400 29600
" />
</g>
<g style="fill:#000000; fill-opacity:1.0; 
stroke:#000000; stroke-width:150; stroke-opacity:1; 
stroke-linecap:round; stroke-linejoin:round;">
<path d="M51500 29600
L51700 29800
" />
</g>
<g style="fill:#000000; fill-opacity:1.0; 
stroke:#000000; stroke-width:100; stroke-opacity:1; 
stroke-linecap:round; stroke-linejoin:round;">
<path d="M50075 25800
L50100 25800
" />
</g>
<g style="fill:#000000; fill-opacity:1.0; 
stroke:#000000; stroke-width:150; stroke-opacity:1; 
stroke-linecap:round; stroke-linejoin:round;">
<path d="M53100 25900
L53100 25148
" />
<path d="M52400 26600
L53100 25900
" />
<path d="M51900 26600
L52400 26600
" />
<path d="M51600 26600
L51900 26600
" />
<path d="M51400 26400
L51600 26600
" />
<path d="M50700 26400
L51400 26400
" />
<path d="M50100 25800
L50700 26400
" />
</g>
<g style="fill:#000000; fill-opacity:1.0; 
stroke:#000000; stroke-width:100; stroke-opacity:1; 
stroke-linecap:round; stroke-linejoin:round;">
<path d="M53100 25148
L53100 25100
" />
<path d="M53100 25100
L53100 25148
" />
<path d="M50875 24300
L51093 24518
" />
<path d="M52104 24518
L51093 24518
" />
<path d="M57325 16900
L57325 16975
" />
</g>
<g style="fill:#000000; fill-opacity:1.0; 
stroke:#000000; stroke-width:150; stroke-opacity:1; 
stroke-linecap:round; stroke-linejoin:round;">
<path d="M59600 18400
L60200 19000
" />
<path d="M57400 18400
L59600 18400
" />
<path d="M57100 18100
L57400 18400
" />
<path d="M57100 17200
L57100 18100
" />
<path d="M57325 16975
L57100 17200
" />
<path d="M60550 19800
L60550 19350
" />
<path d="M60400 19200
L60200 19000
" />
<path d="M60550 19350
L60400 19200
" />
</g>
<g style="fill:#000000; fill-opacity:1.0; 
stroke:#000000; stroke-width:100; stroke-opacity:1; 
stroke-linecap:round; stroke-linejoin:round;">
<path d="M62100 22900
L62000 22900
" />
</g>
<g style="fill:#000000; fill-opacity:1.0; 
stroke:#000000; stroke-width:150; stroke-opacity:1; 
stroke-linecap:round; stroke-linejoin:round;">
<path d="M62000 22900
L61600 22500
" />
</g>
<g style="fill:#000000; fill-opacity:1.0; 
stroke:#000000; stroke-width:100; stroke-opacity:1; 
stroke-linecap:round; stroke-linejoin:round;">
<path d="M63000 29975
L62325 29975
" />
<path d="M62325 29975
L61900 30400
" />
<path d="M57000 24800
L57000 24830
" />
<path d="M57000 24830
L57000 24800
" />
<path d="M57000 24800
L57000 24830
" />
<path d="M52500 29500
L52000 29500
" />
</g>
<g style="fill:#000000; fill-opacity:1.0; 
stroke:#000000; stroke-width:150; stroke-opacity:1; 
stroke-linecap:round; stroke-linejoin:round;">
<path d="M52000 29500
L51700 29800
" />
<path d="M51700 29800
L50900 30600
" />
<path d="M55870 24830
L57000 24830
" />
<path d="M57000 24830
L57295 24830
" />
<path d="M57295 24830
L57500 24625
" />
<path d="M52104 25148
L53100 25148
" />
<path d="M51813 20013
L52300 20013
" />
<path d="M51600 19800
L51813 20013
" />
</g>
<g style="fill:#000000; fill-opacity:1.0; 
stroke:#000000; stroke-width:120; stroke-opacity:1; 
stroke-linecap:round; stroke-linejoin:round;">
<path d="M58550 17800
L58550 17550
" />
<path d="M58075 17275
L58075 16900
" />
</g>
<g style="fill:#000000; fill-opacity:1.0; 
stroke:#000000; stroke-width:100; stroke-opacity:1; 
stroke-linecap:round; stroke-linejoin:round;">
<path d="M58100 17300
L58075 17275
" />
</g>
<g style="fill:#000000; fill-opacity:1.0; 
stroke:#000000; stroke-width:120; stroke-opacity:1; 
stroke-linecap:round; stroke-linejoin:round;">
<path d="M58300 17300
L58100 17300
" />
<path d="M58550 17550
L58300 17300
" />
<path d="M63100 21250
L63100 20200
" />
</g>
<g style="fill:#000000; fill-opacity:1.0; 
stroke:#000000; stroke-width:100; stroke-opacity:1; 
stroke-linecap:round; stroke-linejoin:round;">
<path d="M62100 21800
L62100 21700
" />
</g>
<g style="fill:#000000; fill-opacity:1.0; 
stroke:#000000; stroke-width:120; stroke-opacity:1; 
stroke-linecap:round; stroke-linejoin:round;">
<path d="M62600 19600
L63100 19100
" />
<path d="M62600 21200
L62600 19600
" />
<path d="M62100 21700
L62600 21200
" />
<path d="M60550 17800
L60550 16925
" />
</g>
<g style="fill:#000000; fill-opacity:1.0; 
stroke:#000000; stroke-width:100; stroke-opacity:1; 
stroke-linecap:round; stroke-linejoin:round;">
<path d="M60550 16925
L60525 16900
" />
</g>
<g style="fill:#000000; fill-opacity:1.0; 
stroke:#000000; stroke-width:120; stroke-opacity:1; 
stroke-linecap:round; stroke-linejoin:round;">
<path d="M58300 25900
L58700 25900
" />
<path d="M56560 25460
L57000 25900
" />
<path d="M57000 25900
L58300 25900
" />
<path d="M55870 25460
L56560 25460
" />
<path d="M60300 28400
L60800 28400
" />
<path d="M59500 26500
L60300 28400
" />
<path d="M59100 26500
L59500 26500
" />
<path d="M58700 25900
L59100 26500
" />
<path d="M60800 27400
L60300 27400
" />
</g>
<g style="fill:#000000; fill-opacity:1.0; 
stroke:#000000; stroke-width:100; stroke-opacity:1; 
stroke-linecap:round; stroke-linejoin:round;">
<path d="M56780 24520
L55870 24520
" />
<path d="M57200 24100
L56780 24520
" />
</g>
<g style="fill:#000000; fill-opacity:1.0; 
stroke:#000000; stroke-width:120; stroke-opacity:1; 
stroke-linecap:round; stroke-linejoin:round;">
<path d="M58000 24100
L57200 24100
" />
<path d="M58200 24300
L58000 24100
" />
<path d="M58200 25500
L58200 24300
" />
<path d="M58300 25600
L58200 25500
" />
<path d="M58800 25600
L58300 25600
" />
<path d="M59300 26200
L58800 25600
" />
<path d="M59900 26200
L59300 26200
" />
<path d="M60300 27400
L59900 26200
" />
<path d="M58825 16900
L58825 17125
" />
<path d="M59050 17350
L59050 17800
" />
<path d="M58825 17125
L59050 17350
" />
</g>
<g style="fill:#000000; fill-opacity:1.0; 
stroke:#000000; stroke-width:100; stroke-opacity:1; 
stroke-linecap:round; stroke-linejoin:round;">
<path d="M53520 26880
L53520 27380
" />
</g>
<g style="fill:#000000; fill-opacity:1.0; 
stroke:#000000; stroke-width:120; stroke-opacity:1; 
stroke-linecap:round; stroke-linejoin:round;">
<path d="M48700 27400
L48700 26900
" />
<path d="M49200 27900
L48700 27400
" />
<path d="M51100 27900
L49200 27900
" />
<path d="M51300 27700
L51100 27900
" />
</g>
<g style="fill:#000000; fill-opacity:1.0; 
stroke:#000000; stroke-width:100; stroke-opacity:1; 
stroke-linecap:round; stroke-linejoin:round;">
<path d="M51800 27700
L51300 27700
" />
</g>
<g style="fill:#000000; fill-opacity:1.0; 
stroke:#000000; stroke-width:120; stroke-opacity:1; 
stroke-linecap:round; stroke-linejoin:round;">
<path d="M52100 28000
L51800 27700
" />
</g>
<g style="fill:#000000; fill-opacity:1.0; 
stroke:#000000; stroke-width:100; stroke-opacity:1; 
stroke-linecap:round; stroke-linejoin:round;">
<path d="M52900 28000
L52100 28000
" />
<path d="M53520 27380
L52900 28000
" />
</g>
<g style="fill:#000000; fill-opacity:1.0; 
stroke:#000000; stroke-width:120; stroke-opacity:1; 
stroke-linecap:round; stroke-linejoin:round;">
<path d="M53200 26880
L53200 27300
" />
<path d="M49700 27500
L49700 26900
" />
<path d="M49800 27600
L49700 27500
" />
<path d="M50900 27600
L49800 27600
" />
<path d="M51100 27400
L50900 27600
" />
<path d="M51900 27400
L51100 27400
" />
<path d="M52200 27700
L51900 27400
" />
<path d="M52800 27700
L52200 27700
" />
<path d="M53200 27300
L52800 27700
" />
<path d="M52434 16535
L53135 16535
" />
<path d="M53615 17015
L53615 17558
" />
<path d="M53135 16535
L53615 17015
" />
<path d="M54600 19187
L54938 19187
" />
<path d="M54938 19187
L55325 18800
" />
<path d="M53900 18925
L54338 18925
" />
<path d="M54338 18925
L54600 19187
" />
<path d="M53615 17558
L53615 18640
" />
<path d="M53615 18640
L53900 18925
" />
<path d="M59550 17800
L59550 16925
" />
<path d="M59550 16925
L59575 16900
" />
</g>
<g style="fill:#000000; fill-opacity:1.0; 
stroke:#000000; stroke-width:100; stroke-opacity:1; 
stroke-linecap:round; stroke-linejoin:round;">
<path d="M53000 18925
L53000 18800
" />
</g>
<g style="fill:#000000; fill-opacity:1.0; 
stroke:#000000; stroke-width:120; stroke-opacity:1; 
stroke-linecap:round; stroke-linejoin:round;">
<path d="M53300 18500
L53300 17558
" />
<path d="M53000 18800
L53300 18500
" />
<path d="M52300 19187
L52738 19187
" />
<path d="M52738 19187
L53000 18925
" />
<path d="M49900 30600
L49900 29225
" />
<path d="M49900 29225
L49775 29100
" />
</g>
<g style="fill:#000000; fill-opacity:1.0; 
stroke:#000000; stroke-width:100; stroke-opacity:1; 
stroke-linecap:round; stroke-linejoin:round;">
<path d="M49900 29225
L49775 29100
" />
</g>
<g style="fill:#000000; fill-opacity:1.0; 
stroke:#000000; stroke-width:120; stroke-opacity:1; 
stroke-linecap:round; stroke-linejoin:round;">
<path d="M63000 29225
L61725 29225
" />
</g>
<g style="fill:#000000; fill-opacity:1.0; 
stroke:#000000; stroke-width:100; stroke-opacity:1; 
stroke-linecap:round; stroke-linejoin:round;">
<path d="M61725 29225
L61700 29200
" />
</g>
<g style="fill:#000000; fill-opacity:1.0; 
stroke:#000000; stroke-width:120; stroke-opacity:1; 
stroke-linecap:round; stroke-linejoin:round;">
<path d="M64700 29200
L63025 29200
" />
</g>
<g style="fill:#000000; fill-opacity:1.0; 
stroke:#000000; stroke-width:100; stroke-opacity:1; 
stroke-linecap:round; stroke-linejoin:round;">
<path d="M63025 29200
L63000 29225
" />
<path d="M47900 30500
L47900 30600
" />
</g>
<g style="fill:#000000; fill-opacity:1.0; 
stroke:#000000; stroke-width:120; stroke-opacity:1; 
stroke-linecap:round; stroke-linejoin:round;">
<path d="M47900 29475
L47900 30600
" />
<path d="M60050 17800
L60050 16025
" />
</g>
<g style="fill:#000000; fill-opacity:1.0; 
stroke:#000000; stroke-width:100; stroke-opacity:1; 
stroke-linecap:round; stroke-linejoin:round;">
<path d="M60050 16025
L60025 16000
" />
</g>
<g style="fill:#000000; fill-opacity:1.0; 
stroke:#000000; stroke-width:150; stroke-opacity:1; 
stroke-linecap:round; stroke-linejoin:round;">
<path d="M50100 16100
L53200 16100
" />
</g>
<g style="fill:#000000; fill-opacity:1.0; 
stroke:#000000; stroke-width:120; stroke-opacity:1; 
stroke-linecap:round; stroke-linejoin:round;">
<path d="M53930 16830
L53930 17558
" />
<path d="M53200 16100
L53930 16830
" />
</g>
<g style="fill:#000000; fill-opacity:1.0; 
stroke:#000000; stroke-width:150; stroke-opacity:1; 
stroke-linecap:round; stroke-linejoin:round;">
<path d="M50100 15100
L50100 16100
" />
</g>
<g style="fill:#000000; fill-opacity:1.0; 
stroke:#000000; stroke-width:120; stroke-opacity:1; 
stroke-linecap:round; stroke-linejoin:round;">
<path d="M56075 18700
L56075 18475
" />
<path d="M56075 18475
L55800 18200
" />
<path d="M55800 18200
L54000 18200
" />
<path d="M54000 18200
L53930 18130
" />
<path d="M53930 18130
L53930 17558
" />
<path d="M61050 18150
L60800 18400
" />
<path d="M61050 17800
L61050 18150
" />
<path d="M61200 16000
L60775 16000
" />
<path d="M61300 15900
L61200 16000
" />
<path d="M52104 26093
L50993 26093
" />
<path d="M50400 25200
L49400 25200
" />
<path d="M50600 25400
L50400 25200
" />
<path d="M50600 25700
L50600 25400
" />
<path d="M50993 26093
L50600 25700
" />
<path d="M49325 25800
L49325 25200
" />
</g>
<g style="fill:#000000; fill-opacity:1.0; 
stroke:#000000; stroke-width:100; stroke-opacity:1; 
stroke-linecap:round; stroke-linejoin:round;">
<path d="M49325 25200
L49400 25200
" />
</g>
<g style="fill:#000000; fill-opacity:1.0; 
stroke:#000000; stroke-width:120; stroke-opacity:1; 
stroke-linecap:round; stroke-linejoin:round;">
<path d="M49400 25200
L48900 25200
" />
<path d="M52104 25778
L51378 25778
" />
<path d="M50125 24525
L50125 24300
" />
</g>
<g style="fill:#000000; fill-opacity:1.0; 
stroke:#000000; stroke-width:100; stroke-opacity:1; 
stroke-linecap:round; stroke-linejoin:round;">
<path d="M51378 25778
L50125 24525
" />
</g>
<g style="fill:#000000; fill-opacity:1.0; 
stroke:#000000; stroke-width:120; stroke-opacity:1; 
stroke-linecap:round; stroke-linejoin:round;">
<path d="M50125 24300
L49700 24300
" />
<path d="M48900 23500
L48900 23200
" />
<path d="M49700 24300
L48900 23500
" />
<path d="M46900 30600
L46900 29475
" />
<path d="M44900 30600
L44900 29475
" />
<path d="M44500 30600
L44900 30600
" />
<path d="M44400 30500
L44500 30600
" />
<path d="M44400 27700
L44400 30500
" />
<path d="M45900 30600
L45900 29475
" />
<path d="M43900 30600
L43900 29475
" />
</g>
<g style="fill:#000000; fill-opacity:1.0; 
stroke:#000000; stroke-width:300; stroke-opacity:1; 
stroke-linecap:round; stroke-linejoin:round;">
<path d="M47400 19800
L47400 19300
" />
<path d="M44191 17400
L43591 18000
" />
<path d="M45600 17400
L44191 17400
" />
<path d="M46100 17900
L45600 17400
" />
<path d="M46100 18000
L46100 17900
" />
<path d="M47400 19300
L46100 18000
" />
<path d="M43591 18000
L43591 18200
" />
<path d="M43800 26000
L42900 25100
" />
<path d="M42900 25100
L42900 18691
" />
<path d="M42900 18691
L43591 18000
" />
</g>
<g style="fill:#000000; fill-opacity:1.0; 
stroke:#000000; stroke-width:150; stroke-opacity:1; 
stroke-linecap:round; stroke-linejoin:round;">
<path d="M49100 16100
L49100 16500
" />
<path d="M48200 17400
L47500 17400
" />
<path d="M49100 16500
L48200 17400
" />
</g>
<g style="fill:#000000; fill-opacity:1.0; 
stroke:#000000; stroke-width:300; stroke-opacity:1; 
stroke-linecap:round; stroke-linejoin:round;">
<path d="M49100 17600
L50100 17600
" />
</g>
<g style="fill:#000000; fill-opacity:1.0; 
stroke:#000000; stroke-width:150; stroke-opacity:1; 
stroke-linecap:round; stroke-linejoin:round;">
<path d="M52104 25463
L51563 25463
" />
<path d="M51563 25463
L51200 25100
" />
<path d="M52104 24833
L51467 24833
" />
<path d="M51467 24833
L51200 25100
" />
</g>
<g style="fill:#000000; fill-opacity:1.0; 
stroke:#000000; stroke-width:120; stroke-opacity:1; 
stroke-linecap:round; stroke-linejoin:round;">
<path d="M61500 17700
L62500 17700
" />
</g>
<g style="fill:#000000; fill-opacity:1.0; 
stroke:#000000; stroke-width:150; stroke-opacity:1; 
stroke-linecap:round; stroke-linejoin:round;">
<path d="M61700 24500
L61700 26900
" />
<path d="M63700 22500
L61700 24500
" />
<path d="M63700 18900
L63700 22500
" />
<path d="M62500 17700
L63700 18900
" />
<path d="M61050 19800
L61050 19050
" />
</g>
<g style="fill:#000000; fill-opacity:1.0; 
stroke:#000000; stroke-width:120; stroke-opacity:1; 
stroke-linecap:round; stroke-linejoin:round;">
<path d="M61500 17125
L61275 16900
" />
</g>
<g style="fill:#000000; fill-opacity:1.0; 
stroke:#000000; stroke-width:150; stroke-opacity:1; 
stroke-linecap:round; stroke-linejoin:round;">
<path d="M61500 18600
L61500 17700
" />
<path d="M61500 17700
L61500 17125
" />
<path d="M61050 19050
L61500 18600
" />
</g>
<g style="fill:#000000; fill-opacity:1.0; 
stroke:#000000; stroke-width:120; stroke-opacity:1; 
stroke-linecap:round; stroke-linejoin:round;">
<path d="M58275 26575
L58275 26400
" />
<path d="M59100 27400
L58275 26575
" />
</g>
<g style="fill:#000000; fill-opacity:1.0; 
stroke:#000000; stroke-width:59.0551; stroke-opacity:1; 
stroke-linecap:round; stroke-linejoin:round;">
<polyline style="fill-rule:evenodd;"
points="47945,22275
47510,22710
47421,22843
47390,23000
47390,24805
47343,24758
47214,24705
46337,24705
46250,24792
46250,25950
46257,25950
46257,26050
46250,26050
46250,26057
46150,26057
46150,26050
46142,26050
46142,25950
46150,25950
46150,24792
46062,24705
45809,24705
45994,24258
45995,23743
45798,23267
45434,22902
44958,22705
44443,22704
43967,22901
43602,23265
43405,23741
43404,24256
43590,24704
43543,24704
43400,24764
43400,18898
43433,18865
44172,18865
44300,18812
44427,18865
44871,18865
44959,18777
44959,18250
44951,18250
44951,18150
44959,18150
44959,18142
45059,18142
45059,18150
45066,18150
45066,18250
45059,18250
45059,18777
45146,18865
45590,18865
45719,18811
45817,18713
45871,18584
45871,18478
46586,19193
46503,19276
46450,19405
46450,19544
46450,20194
46503,20323
46601,20421
46730,20475
46869,20475
47875,20475
47875,20723
47673,20925
46730,20925
46601,20978
46503,21076
46450,21205
46450,21344
46450,21994
46503,22123
46601,22221
46730,22275
46869,22275
47945,22275
" /> 
</g>
<g style="fill:#000000; fill-opacity:0.0; 
stroke:#000000; stroke-width:100; stroke-opacity:1; 
stroke-linecap:round; stroke-linejoin:round;">
<polyline fill="none;"
points="47945,22275
47510,22710
47421,22843
47390,23000
47390,24805
47343,24758
47214,24705
46337,24705
46250,24792
46250,25950
46257,25950
46257,26050
46250,26050
46250,26057
46150,26057
46150,26050
46142,26050
46142,25950
46150,25950
46150,24792
46062,24705
45809,24705
45994,24258
45995,23743
45798,23267
45434,22902
44958,22705
44443,22704
43967,22901
43602,23265
43405,23741
43404,24256
43590,24704
43543,24704
43400,24764
43400,18898
43433,18865
44172,18865
44300,18812
44427,18865
44871,18865
44959,18777
44959,18250
44951,18250
44951,18150
44959,18150
44959,18142
45059,18142
45059,18150
45066,18150
45066,18250
45059,18250
45059,18777
45146,18865
45590,18865
45719,18811
45817,18713
45871,18584
45871,18478
46586,19193
46503,19276
46450,19405
46450,19544
46450,20194
46503,20323
46601,20421
46730,20475
46869,20475
47875,20475
47875,20723
47673,20925
46730,20925
46601,20978
46503,21076
46450,21205
46450,21344
46450,21994
46503,22123
46601,22221
46730,22275
46869,22275
47945,22275
" /> 
</g>
<g style="fill:#000000; fill-opacity:1.0; 
stroke:#000000; stroke-width:59.0551; stroke-opacity:1; 
stroke-linecap:round; stroke-linejoin:round;">
<polyline style="fill-rule:evenodd;"
points="48157,17975
48150,17975
48150,17982
48050,17982
48050,17975
48042,17975
48042,17875
48050,17875
48050,17867
48150,17867
48150,17875
48157,17875
48157,17975
" /> 
</g>
<g style="fill:#000000; fill-opacity:0.0; 
stroke:#000000; stroke-width:100; stroke-opacity:1; 
stroke-linecap:round; stroke-linejoin:round;">
<polyline fill="none;"
points="48157,17975
48150,17975
48150,17982
48050,17982
48050,17975
48042,17975
48042,17875
48050,17875
48050,17867
48150,17867
48150,17875
48157,17875
48157,17975
" /> 
</g>
<g style="fill:#000000; fill-opacity:1.0; 
stroke:#000000; stroke-width:59.0551; stroke-opacity:1; 
stroke-linecap:round; stroke-linejoin:round;">
<polyline style="fill-rule:evenodd;"
points="50132,25850
50125,25850
50125,25857
50025,25857
50025,25850
50017,25850
50017,25750
50025,25750
50025,25742
50125,25742
50125,25750
50132,25750
50132,25850
" /> 
</g>
<g style="fill:#000000; fill-opacity:0.0; 
stroke:#000000; stroke-width:100; stroke-opacity:1; 
stroke-linecap:round; stroke-linejoin:round;">
<polyline fill="none;"
points="50132,25850
50125,25850
50125,25857
50025,25857
50025,25850
50017,25850
50017,25750
50025,25750
50025,25742
50125,25742
50125,25750
50132,25750
50132,25850
" /> 
</g>
<g style="fill:#000000; fill-opacity:1.0; 
stroke:#000000; stroke-width:59.0551; stroke-opacity:1; 
stroke-linecap:round; stroke-linejoin:round;">
<polyline style="fill-rule:evenodd;"
points="50932,24350
50925,24350
50925,24357
50825,24357
50825,24350
50817,24350
50817,24250
50825,24250
50825,24242
50925,24242
50925,24250
50932,24250
50932,24350
" /> 
</g>
<g style="fill:#000000; fill-opacity:0.0; 
stroke:#000000; stroke-width:100; stroke-opacity:1; 
stroke-linecap:round; stroke-linejoin:round;">
<polyline fill="none;"
points="50932,24350
50925,24350
50925,24357
50825,24357
50825,24350
50817,24350
50817,24250
50825,24250
50825,24242
50925,24242
50925,24250
50932,24250
50932,24350
" /> 
</g>
<g style="fill:#000000; fill-opacity:1.0; 
stroke:#000000; stroke-width:59.0551; stroke-opacity:1; 
stroke-linecap:round; stroke-linejoin:round;">
<polyline style="fill-rule:evenodd;"
points="52317,26531
52230,26590
52130,26690
51350,26690
51350,26530
51338,26503
51572,26503
51640,26531
51780,26531
52317,26531
" /> 
</g>
<g style="fill:#000000; fill-opacity:0.0; 
stroke:#000000; stroke-width:100; stroke-opacity:1; 
stroke-linecap:round; stroke-linejoin:round;">
<polyline fill="none;"
points="52317,26531
52230,26590
52130,26690
51350,26690
51350,26530
51338,26503
51572,26503
51640,26531
51780,26531
52317,26531
" /> 
</g>
<g style="fill:#000000; fill-opacity:1.0; 
stroke:#000000; stroke-width:59.0551; stroke-opacity:1; 
stroke-linecap:round; stroke-linejoin:round;">
<polyline style="fill-rule:evenodd;"
points="52557,29550
52550,29550
52550,29557
52450,29557
52450,29550
51937,29550
51850,29637
51850,29730
51850,29869
51903,29998
52001,30096
52130,30150
52270,30150
52210,30210
52121,30343
52090,30500
52094,30521
51970,30645
51875,30875
51874,31123
51902,31190
51525,31190
51525,30737
51525,30462
51525,29919
51525,29780
51471,29651
51373,29553
51244,29500
51037,29500
50950,29587
50950,30550
51437,30550
51525,30462
51525,30737
51437,30650
50950,30650
50950,30657
50850,30657
50850,30650
50842,30650
50842,30550
50850,30550
50850,29587
50762,29500
50555,29500
50426,29553
50400,29580
50373,29553
50310,29527
50310,29413
50390,29446
50608,29446
50697,29410
51897,29410
51937,29450
52450,29450
52450,29442
52550,29442
52550,29450
52557,29450
52557,29550
" /> 
</g>
<g style="fill:#000000; fill-opacity:0.0; 
stroke:#000000; stroke-width:100; stroke-opacity:1; 
stroke-linecap:round; stroke-linejoin:round;">
<polyline fill="none;"
points="52557,29550
52550,29550
52550,29557
52450,29557
52450,29550
51937,29550
51850,29637
51850,29730
51850,29869
51903,29998
52001,30096
52130,30150
52270,30150
52210,30210
52121,30343
52090,30500
52094,30521
51970,30645
51875,30875
51874,31123
51902,31190
51525,31190
51525,30737
51525,30462
51525,29919
51525,29780
51471,29651
51373,29553
51244,29500
51037,29500
50950,29587
50950,30550
51437,30550
51525,30462
51525,30737
51437,30650
50950,30650
50950,30657
50850,30657
50850,30650
50842,30650
50842,30550
50850,30550
50850,29587
50762,29500
50555,29500
50426,29553
50400,29580
50373,29553
50310,29527
50310,29413
50390,29446
50608,29446
50697,29410
51897,29410
51937,29450
52450,29450
52450,29442
52550,29442
52550,29450
52557,29450
52557,29550
" /> 
</g>
<g style="fill:#000000; fill-opacity:1.0; 
stroke:#000000; stroke-width:59.0551; stroke-opacity:1; 
stroke-linecap:round; stroke-linejoin:round;">
<polyline style="fill-rule:evenodd;"
points="52859,18361
52820,18400
52655,18400
52526,18453
52428,18551
52407,18601
51994,18601
51865,18654
51767,18752
51714,18881
51714,19020
51714,19492
51758,19600
51714,19707
51714,19875
51801,19963
52250,19963
52250,19955
52350,19955
52350,19963
52357,19963
52357,20063
52350,20063
52350,20070
52250,20070
52250,20063
51801,20063
51714,20150
51714,20318
51767,20447
51865,20545
51994,20599
52017,20599
51846,20669
51670,20845
51575,21075
51574,21323
51669,21553
51790,21673
51790,23449
51780,23449
51778,23443
51689,23310
51556,23221
51450,23199
51450,21969
51450,20837
51362,20750
49950,20750
49950,22162
50037,22250
51030,22250
51169,22250
51298,22196
51396,22098
51450,21969
51450,23199
51400,23190
50569,23190
49629,22250
49762,22250
49850,22162
49850,20750
49842,20750
49842,20650
49850,20650
49850,20642
49950,20642
49950,20650
51362,20650
51450,20562
51450,19430
51396,19301
51298,19203
51169,19150
51030,19150
50469,19150
50650,18968
50749,18729
50749,18651
51053,18347
51084,18361
51224,18361
52011,18361
52139,18307
52238,18209
52256,18165
52274,18209
52373,18307
52501,18361
52533,18361
52620,18273
52620,18240
52688,18307
52799,18353
52806,18361
52816,18361
52838,18361
52859,18361
" /> 
</g>
<g style="fill:#000000; fill-opacity:0.0; 
stroke:#000000; stroke-width:100; stroke-opacity:1; 
stroke-linecap:round; stroke-linejoin:round;">
<polyline fill="none;"
points="52859,18361
52820,18400
52655,18400
52526,18453
52428,18551
52407,18601
51994,18601
51865,18654
51767,18752
51714,18881
51714,19020
51714,19492
51758,19600
51714,19707
51714,19875
51801,19963
52250,19963
52250,19955
52350,19955
52350,19963
52357,19963
52357,20063
52350,20063
52350,20070
52250,20070
52250,20063
51801,20063
51714,20150
51714,20318
51767,20447
51865,20545
51994,20599
52017,20599
51846,20669
51670,20845
51575,21075
51574,21323
51669,21553
51790,21673
51790,23449
51780,23449
51778,23443
51689,23310
51556,23221
51450,23199
51450,21969
51450,20837
51362,20750
49950,20750
49950,22162
50037,22250
51030,22250
51169,22250
51298,22196
51396,22098
51450,21969
51450,23199
51400,23190
50569,23190
49629,22250
49762,22250
49850,22162
49850,20750
49842,20750
49842,20650
49850,20650
49850,20642
49950,20642
49950,20650
51362,20650
51450,20562
51450,19430
51396,19301
51298,19203
51169,19150
51030,19150
50469,19150
50650,18968
50749,18729
50749,18651
51053,18347
51084,18361
51224,18361
52011,18361
52139,18307
52238,18209
52256,18165
52274,18209
52373,18307
52501,18361
52533,18361
52620,18273
52620,18240
52688,18307
52799,18353
52806,18361
52816,18361
52838,18361
52859,18361
" /> 
</g>
<g style="fill:#000000; fill-opacity:1.0; 
stroke:#000000; stroke-width:59.0551; stroke-opacity:1; 
stroke-linecap:round; stroke-linejoin:round;">
<polyline style="fill-rule:evenodd;"
points="54657,20063
54650,20063
54650,20070
54550,20070
54550,20063
54542,20063
54542,20010
54657,20010
54657,20063
" /> 
</g>
<g style="fill:#000000; fill-opacity:0.0; 
stroke:#000000; stroke-width:100; stroke-opacity:1; 
stroke-linecap:round; stroke-linejoin:round;">
<polyline fill="none;"
points="54657,20063
54650,20063
54650,20070
54550,20070
54550,20063
54542,20063
54542,20010
54657,20010
54657,20063
" /> 
</g>
<g style="fill:#000000; fill-opacity:1.0; 
stroke:#000000; stroke-width:59.0551; stroke-opacity:1; 
stroke-linecap:round; stroke-linejoin:round;">
<polyline style="fill-rule:evenodd;"
points="55208,24835
55179,24863
55147,24940
55126,24961
55126,24988
55127,24990
55126,24991
55126,25131
55126,25301
55126,25308
55126,25441
55126,25560
54746,25181
54746,25091
54663,24890
54510,24736
54309,24653
54091,24653
53890,24736
53736,24889
53653,25090
53653,25308
53736,25509
53889,25663
54090,25746
54181,25746
54570,26136
54478,26136
54301,26136
54300,26137
54298,26136
54158,26136
53988,26136
53981,26136
53848,26136
53678,26136
53671,26136
53538,26136
53361,26136
53360,26137
53358,26136
53218,26136
53048,26136
53041,26136
52908,26136
52847,26136
52847,26111
52847,25936
52847,25934
52847,25796
52847,25621
52847,25619
52847,25481
52847,25306
52847,25304
52847,25279
52829,25261
52794,25176
52765,25148
52794,25119
52829,25034
52847,25016
52847,24991
52847,24989
52847,24851
52847,24676
52847,24674
52847,24649
52829,24631
52794,24546
52765,24518
52794,24489
52829,24404
52847,24386
52847,24361
52847,24359
52847,24221
52847,24127
52910,24189
53043,24278
53043,24278
53085,24287
53085,24287
53136,24409
53289,24563
53490,24646
53708,24646
53909,24563
54063,24410
54081,24366
54145,24430
54375,24525
54623,24525
54853,24430
55030,24254
55125,24024
55125,23843
55126,23843
55126,23871
55126,24041
55126,24048
55126,24181
55126,24358
55127,24360
55126,24361
55126,24501
55126,24671
55126,24678
55126,24698
55140,24712
55179,24806
55208,24835
" /> 
</g>
<g style="fill:#000000; fill-opacity:0.0; 
stroke:#000000; stroke-width:100; stroke-opacity:1; 
stroke-linecap:round; stroke-linejoin:round;">
<polyline fill="none;"
points="55208,24835
55179,24863
55147,24940
55126,24961
55126,24988
55127,24990
55126,24991
55126,25131
55126,25301
55126,25308
55126,25441
55126,25560
54746,25181
54746,25091
54663,24890
54510,24736
54309,24653
54091,24653
53890,24736
53736,24889
53653,25090
53653,25308
53736,25509
53889,25663
54090,25746
54181,25746
54570,26136
54478,26136
54301,26136
54300,26137
54298,26136
54158,26136
53988,26136
53981,26136
53848,26136
53678,26136
53671,26136
53538,26136
53361,26136
53360,26137
53358,26136
53218,26136
53048,26136
53041,26136
52908,26136
52847,26136
52847,26111
52847,25936
52847,25934
52847,25796
52847,25621
52847,25619
52847,25481
52847,25306
52847,25304
52847,25279
52829,25261
52794,25176
52765,25148
52794,25119
52829,25034
52847,25016
52847,24991
52847,24989
52847,24851
52847,24676
52847,24674
52847,24649
52829,24631
52794,24546
52765,24518
52794,24489
52829,24404
52847,24386
52847,24361
52847,24359
52847,24221
52847,24127
52910,24189
53043,24278
53043,24278
53085,24287
53085,24287
53136,24409
53289,24563
53490,24646
53708,24646
53909,24563
54063,24410
54081,24366
54145,24430
54375,24525
54623,24525
54853,24430
55030,24254
55125,24024
55125,23843
55126,23843
55126,23871
55126,24041
55126,24048
55126,24181
55126,24358
55127,24360
55126,24361
55126,24501
55126,24671
55126,24678
55126,24698
55140,24712
55179,24806
55208,24835
" /> 
</g>
<g style="fill:#000000; fill-opacity:1.0; 
stroke:#000000; stroke-width:59.0551; stroke-opacity:1; 
stroke-linecap:round; stroke-linejoin:round;">
<polyline style="fill-rule:evenodd;"
points="57557,24675
57550,24675
57550,24682
57450,24682
57450,24675
57442,24675
57442,24575
57450,24575
57450,24567
57550,24567
57550,24575
57557,24575
57557,24675
" /> 
</g>
<g style="fill:#000000; fill-opacity:0.0; 
stroke:#000000; stroke-width:100; stroke-opacity:1; 
stroke-linecap:round; stroke-linejoin:round;">
<polyline fill="none;"
points="57557,24675
57550,24675
57550,24682
57450,24682
57450,24675
57442,24675
57442,24575
57450,24575
57450,24567
57550,24567
57550,24575
57557,24575
57557,24675
" /> 
</g>
<g style="fill:#000000; fill-opacity:1.0; 
stroke:#000000; stroke-width:59.0551; stroke-opacity:1; 
stroke-linecap:round; stroke-linejoin:round;">
<polyline style="fill-rule:evenodd;"
points="62176,22905
62105,22976
62100,22970
62029,23041
62029,22900
61659,22530
61535,22552
61445,22794
61455,23052
61535,23247
61659,23269
62029,22900
62029,23041
61730,23340
61752,23464
61994,23554
62046,23552
61399,24199
61395,24205
61330,24046
61183,23899
61329,23754
61424,23524
61425,23276
61330,23046
61183,22899
61329,22754
61424,22524
61425,22276
61330,22046
61183,21899
61329,21754
61424,21524
61425,21285
61456,21278
61456,21278
61589,21189
61630,21149
61730,21250
61549,21431
61450,21670
61449,21928
61548,22167
61731,22350
61748,22357
61730,22459
62100,22829
62105,22823
62176,22894
62170,22900
62176,22905
" /> 
</g>
<g style="fill:#000000; fill-opacity:0.0; 
stroke:#000000; stroke-width:100; stroke-opacity:1; 
stroke-linecap:round; stroke-linejoin:round;">
<polyline fill="none;"
points="62176,22905
62105,22976
62100,22970
62029,23041
62029,22900
61659,22530
61535,22552
61445,22794
61455,23052
61535,23247
61659,23269
62029,22900
62029,23041
61730,23340
61752,23464
61994,23554
62046,23552
61399,24199
61395,24205
61330,24046
61183,23899
61329,23754
61424,23524
61425,23276
61330,23046
61183,22899
61329,22754
61424,22524
61425,22276
61330,22046
61183,21899
61329,21754
61424,21524
61425,21285
61456,21278
61456,21278
61589,21189
61630,21149
61730,21250
61549,21431
61450,21670
61449,21928
61548,22167
61731,22350
61748,22357
61730,22459
62100,22829
62105,22823
62176,22894
62170,22900
62176,22905
" /> 
</g>
<g style="fill:#000000; fill-opacity:1.0; 
stroke:#000000; stroke-width:59.0551; stroke-opacity:1; 
stroke-linecap:round; stroke-linejoin:round;">
<polyline style="fill-rule:evenodd;"
points="65368,31903
53368,31903
53389,31889
53418,31847
53652,31613
53853,31530
54000,31383
54145,31529
54375,31624
54623,31625
54853,31530
54923,31460
54928,31473
55026,31571
55155,31625
55294,31625
55844,31625
55973,31571
56001,31543
56003,31548
56101,31646
56230,31700
56369,31700
56969,31700
57098,31646
57100,31644
57101,31646
57230,31700
57369,31700
57969,31700
58098,31646
58100,31644
58101,31646
58230,31700
58369,31700
58969,31700
59098,31646
59100,31644
59101,31646
59230,31700
59369,31700
59969,31700
60098,31646
60100,31644
60101,31646
60230,31700
60369,31700
60969,31700
61098,31646
61180,31564
61345,31729
61575,31824
61823,31825
62053,31730
62173,31610
64226,31610
64345,31729
64575,31824
64823,31825
65053,31730
65229,31554
65324,31324
65325,31076
65230,30846
65054,30670
64824,30575
64576,30574
64346,30669
64226,30790
63625,30790
63625,30219
63625,30112
63537,30025
63050,30025
63050,30412
63137,30500
63205,30500
63344,30500
63473,30446
63571,30348
63625,30219
63625,30790
62950,30790
62950,30412
62950,30025
62462,30025
62375,30112
62375,30219
62428,30348
62526,30446
62655,30500
62794,30500
62862,30500
62950,30412
62950,30790
62173,30790
62054,30670
61824,30575
61754,30575
61710,30530
61710,29825
61823,29825
62053,29730
62148,29635
62414,29635
62375,29730
62375,29837
62462,29925
62950,29925
62950,29917
63050,29917
63050,29925
63537,29925
63625,29837
63625,29730
63575,29610
64226,29610
64345,29729
64575,29824
64823,29825
65053,29730
65229,29554
65324,29324
65325,29076
65230,28846
65054,28670
64824,28575
64576,28574
64346,28669
64226,28790
63509,28790
63473,28753
63344,28700
63205,28700
62655,28700
62526,28753
62465,28815
62198,28815
62054,28670
61824,28575
61576,28574
61425,28637
61425,28605
61425,28055
61371,27926
61273,27828
61260,27823
61329,27754
61424,27524
61425,27377
61590,27446
61808,27446
62009,27363
62163,27210
62246,27009
62246,26791
62163,26590
62125,26551
62125,26270
62166,26372
62476,26681
62880,26849
63317,26850
63722,26683
64031,26373
64199,25969
64200,25532
64200,15532
64033,15127
63723,14818
63319,14650
62882,14649
62477,14816
62168,15126
62000,15530
61999,15967
62166,16372
62476,16681
62880,16849
63317,16850
63722,16683
64031,16373
64199,15969
64200,15532
64200,25532
64033,25127
63723,24818
63319,24650
62882,24649
62477,24816
62168,25126
62125,25229
62125,24676
64000,22800
64092,22662
64125,22500
64125,18900
64092,18737
64000,18599
62800,17399
62662,17307
62500,17275
62424,17290
61925,17290
61925,17125
61892,16962
61881,16944
61881,16535
61827,16406
61752,16331
61830,16254
61925,16024
61925,15776
61830,15546
61654,15369
61424,15274
61176,15274
60980,15355
60961,15355
60449,15355
60400,15375
60350,15355
60211,15355
59699,15355
59570,15408
59472,15506
59419,15635
59419,15774
59419,16255
59249,16255
59200,16275
59150,16255
59011,16255
58499,16255
58450,16275
58400,16255
58261,16255
57749,16255
57700,16275
57650,16255
57462,16255
57375,16342
57375,16850
57382,16850
57382,16950
57375,16950
57375,16957
57275,16957
57275,16950
57275,16850
57275,16342
57187,16255
56999,16255
56870,16308
56772,16406
56719,16535
56719,16674
56719,16762
56806,16850
57275,16850
57275,16950
56806,16950
56719,17037
56719,17125
56719,17264
56772,17393
56870,17491
56999,17545
57100,17545
57100,17644
57100,18094
57153,18223
57251,18321
57380,18375
57519,18375
57719,18375
57800,18341
57880,18375
58019,18375
58219,18375
58300,18341
58380,18375
58519,18375
58719,18375
58800,18341
58880,18375
59019,18375
59219,18375
59300,18341
59380,18375
59519,18375
59719,18375
59800,18341
59880,18375
60019,18375
60174,18375
60174,18523
60269,18753
60445,18930
60633,19008
60625,19050
60625,19287
60600,19312
60600,19505
60600,19644
60600,19750
60600,19850
60600,19857
60500,19857
60500,19850
60500,19750
60500,19505
60500,19312
60412,19225
60380,19225
60300,19258
60219,19225
60080,19225
59880,19225
59800,19258
59719,19225
59580,19225
59380,19225
59300,19258
59219,19225
59080,19225
58883,19225
58839,19160
58589,18910
58456,18821
58300,18790
57100,18790
56943,18821
56810,18910
56600,19120
56600,19005
56600,18455
56546,18326
56448,18228
56372,18197
56372,18197
56364,18185
56089,17910
55956,17821
55800,17790
55795,17790
55795,16957
55742,16828
55643,16730
55515,16677
55375,16677
54677,16677
54692,16640
54693,16430
54613,16236
54560,16184
54588,16196
54728,16196
55515,16196
55643,16142
55742,16044
55795,15915
55795,15776
55795,14792
55742,14663
55643,14565
55515,14512
55375,14512
54588,14512
54460,14565
54361,14663
54308,14792
54308,14931
54308,15915
54361,16044
54364,16046
54271,16008
54061,16007
53867,16087
53817,16137
53543,15863
53500,15799
53362,15707
53200,15675
52291,15675
52291,14792
52238,14663
52139,14565
52011,14512
51871,14512
51084,14512
50956,14565
50857,14663
50804,14792
50804,14931
50804,15675
50594,15675
50525,15605
50525,15594
50650,15468
50749,15229
50750,14971
50651,14732
50468,14549
50229,14450
49971,14449
49732,14548
49599,14680
49468,14549
49229,14450
48971,14449
48732,14548
48651,14629
48608,14638
48446,14746
48446,14746
48125,15067
48125,15049
48037,15049
48125,14962
48125,14894
48125,14755
48071,14626
47973,14528
47844,14475
47637,14475
47550,14562
47550,15050
47557,15050
47557,15150
47550,15150
47550,15157
47450,15157
47450,15150
47442,15150
47442,15050
47450,15050
47450,14562
47362,14475
47155,14475
47026,14528
46928,14626
46927,14627
46914,14614
46851,14677
46832,14556
46599,14470
46351,14480
46167,14556
46148,14677
46500,15029
46505,15023
46576,15094
46570,15100
46576,15105
46505,15176
46500,15170
46429,15241
46429,15100
46077,14748
46000,14760
45922,14748
45851,14818
45851,14677
45832,14556
45599,14470
45351,14480
45167,14556
45148,14677
45500,15029
45851,14677
45851,14818
45570,15100
45922,15451
46000,15439
46077,15451
46429,15100
46429,15241
46148,15522
46151,15540
46132,15548
46080,15600
45919,15600
45868,15549
45848,15541
45851,15522
45500,15170
45429,15241
45148,15522
45151,15540
45132,15548
45087,15592
44998,15503
44956,15486
44922,15451
45000,15439
45077,15451
45429,15100
45077,14748
45000,14760
44922,14748
44851,14818
44851,14677
44832,14556
44599,14470
44351,14480
44167,14556
44148,14677
44500,15029
44851,14677
44851,14818
44570,15100
44576,15105
44505,15176
44500,15170
44494,15176
44429,15111
44423,15105
44429,15100
44077,14748
44000,14760
43922,14748
43851,14818
43570,15100
43922,15451
44000,15439
44077,15451
44043,15486
44001,15503
43912,15592
43868,15549
43848,15541
43851,15522
43500,15170
43494,15176
43423,15105
43429,15100
43423,15094
43494,15023
43500,15029
43851,14677
43832,14556
43599,14470
43351,14480
43167,14556
43148,14677
43085,14614
43072,14627
43071,14626
42973,14528
42844,14475
42637,14475
42550,14562
42550,15050
42557,15050
42557,15150
42550,15150
42550,15157
42450,15157
42450,15150
42450,15050
42450,14562
42362,14475
42155,14475
42026,14528
41928,14626
41875,14755
41875,14894
41875,14962
41962,15050
42450,15050
42450,15150
41962,15150
41875,15237
41875,15305
41875,15444
41928,15573
42017,15662
41949,15731
41850,15970
41849,16228
41948,16467
42131,16650
42370,16749
42628,16750
42867,16651
42919,16600
43080,16600
43131,16650
43370,16749
43628,16750
43867,16651
43912,16607
44001,16696
44056,16719
44146,16853
44192,16900
44191,16900
43999,16938
43837,17046
43837,17046
43348,17535
43009,17535
42880,17588
42782,17686
42729,17815
42729,17954
42729,18154
42546,18337
42438,18499
42399,18691
42400,18691
42400,25099
42399,25100
42438,25291
42546,25453
42601,25508
42505,25741
42504,26256
42701,26732
43065,27097
43541,27294
43625,27294
43610,27310
43521,27443
43490,27600
43490,28227
43426,28253
43328,28351
43275,28480
43275,28619
43275,28969
43328,29098
43330,29100
43328,29101
43275,29230
43275,29369
43275,29719
43287,29750
43275,29780
43275,29919
43275,30473
43274,30475
43274,30723
43275,30725
43275,31419
43328,31548
43426,31646
43555,31700
43694,31700
44244,31700
44373,31646
44400,31619
44426,31646
44555,31700
44694,31700
45244,31700
45373,31646
45400,31619
45426,31646
45555,31700
45694,31700
46244,31700
46373,31646
46400,31619
46426,31646
46555,31700
46694,31700
47244,31700
47373,31646
47400,31619
47426,31646
47555,31700
47694,31700
48120,31700
48310,31889
48331,31903
41718,31903
41718,14159
65368,14159
65368,31903
" /> 
</g>
<g style="fill:#000000; fill-opacity:0.0; 
stroke:#000000; stroke-width:100; stroke-opacity:1; 
stroke-linecap:round; stroke-linejoin:round;">
<polyline fill="none;"
points="65368,31903
53368,31903
53389,31889
53418,31847
53652,31613
53853,31530
54000,31383
54145,31529
54375,31624
54623,31625
54853,31530
54923,31460
54928,31473
55026,31571
55155,31625
55294,31625
55844,31625
55973,31571
56001,31543
56003,31548
56101,31646
56230,31700
56369,31700
56969,31700
57098,31646
57100,31644
57101,31646
57230,31700
57369,31700
57969,31700
58098,31646
58100,31644
58101,31646
58230,31700
58369,31700
58969,31700
59098,31646
59100,31644
59101,31646
59230,31700
59369,31700
59969,31700
60098,31646
60100,31644
60101,31646
60230,31700
60369,31700
60969,31700
61098,31646
61180,31564
61345,31729
61575,31824
61823,31825
62053,31730
62173,31610
64226,31610
64345,31729
64575,31824
64823,31825
65053,31730
65229,31554
65324,31324
65325,31076
65230,30846
65054,30670
64824,30575
64576,30574
64346,30669
64226,30790
63625,30790
63625,30219
63625,30112
63537,30025
63050,30025
63050,30412
63137,30500
63205,30500
63344,30500
63473,30446
63571,30348
63625,30219
63625,30790
62950,30790
62950,30412
62950,30025
62462,30025
62375,30112
62375,30219
62428,30348
62526,30446
62655,30500
62794,30500
62862,30500
62950,30412
62950,30790
62173,30790
62054,30670
61824,30575
61754,30575
61710,30530
61710,29825
61823,29825
62053,29730
62148,29635
62414,29635
62375,29730
62375,29837
62462,29925
62950,29925
62950,29917
63050,29917
63050,29925
63537,29925
63625,29837
63625,29730
63575,29610
64226,29610
64345,29729
64575,29824
64823,29825
65053,29730
65229,29554
65324,29324
65325,29076
65230,28846
65054,28670
64824,28575
64576,28574
64346,28669
64226,28790
63509,28790
63473,28753
63344,28700
63205,28700
62655,28700
62526,28753
62465,28815
62198,28815
62054,28670
61824,28575
61576,28574
61425,28637
61425,28605
61425,28055
61371,27926
61273,27828
61260,27823
61329,27754
61424,27524
61425,27377
61590,27446
61808,27446
62009,27363
62163,27210
62246,27009
62246,26791
62163,26590
62125,26551
62125,26270
62166,26372
62476,26681
62880,26849
63317,26850
63722,26683
64031,26373
64199,25969
64200,25532
64200,15532
64033,15127
63723,14818
63319,14650
62882,14649
62477,14816
62168,15126
62000,15530
61999,15967
62166,16372
62476,16681
62880,16849
63317,16850
63722,16683
64031,16373
64199,15969
64200,15532
64200,25532
64033,25127
63723,24818
63319,24650
62882,24649
62477,24816
62168,25126
62125,25229
62125,24676
64000,22800
64092,22662
64125,22500
64125,18900
64092,18737
64000,18599
62800,17399
62662,17307
62500,17275
62424,17290
61925,17290
61925,17125
61892,16962
61881,16944
61881,16535
61827,16406
61752,16331
61830,16254
61925,16024
61925,15776
61830,15546
61654,15369
61424,15274
61176,15274
60980,15355
60961,15355
60449,15355
60400,15375
60350,15355
60211,15355
59699,15355
59570,15408
59472,15506
59419,15635
59419,15774
59419,16255
59249,16255
59200,16275
59150,16255
59011,16255
58499,16255
58450,16275
58400,16255
58261,16255
57749,16255
57700,16275
57650,16255
57462,16255
57375,16342
57375,16850
57382,16850
57382,16950
57375,16950
57375,16957
57275,16957
57275,16950
57275,16850
57275,16342
57187,16255
56999,16255
56870,16308
56772,16406
56719,16535
56719,16674
56719,16762
56806,16850
57275,16850
57275,16950
56806,16950
56719,17037
56719,17125
56719,17264
56772,17393
56870,17491
56999,17545
57100,17545
57100,17644
57100,18094
57153,18223
57251,18321
57380,18375
57519,18375
57719,18375
57800,18341
57880,18375
58019,18375
58219,18375
58300,18341
58380,18375
58519,18375
58719,18375
58800,18341
58880,18375
59019,18375
59219,18375
59300,18341
59380,18375
59519,18375
59719,18375
59800,18341
59880,18375
60019,18375
60174,18375
60174,18523
60269,18753
60445,18930
60633,19008
60625,19050
60625,19287
60600,19312
60600,19505
60600,19644
60600,19750
60600,19850
60600,19857
60500,19857
60500,19850
60500,19750
60500,19505
60500,19312
60412,19225
60380,19225
60300,19258
60219,19225
60080,19225
59880,19225
59800,19258
59719,19225
59580,19225
59380,19225
59300,19258
59219,19225
59080,19225
58883,19225
58839,19160
58589,18910
58456,18821
58300,18790
57100,18790
56943,18821
56810,18910
56600,19120
56600,19005
56600,18455
56546,18326
56448,18228
56372,18197
56372,18197
56364,18185
56089,17910
55956,17821
55800,17790
55795,17790
55795,16957
55742,16828
55643,16730
55515,16677
55375,16677
54677,16677
54692,16640
54693,16430
54613,16236
54560,16184
54588,16196
54728,16196
55515,16196
55643,16142
55742,16044
55795,15915
55795,15776
55795,14792
55742,14663
55643,14565
55515,14512
55375,14512
54588,14512
54460,14565
54361,14663
54308,14792
54308,14931
54308,15915
54361,16044
54364,16046
54271,16008
54061,16007
53867,16087
53817,16137
53543,15863
53500,15799
53362,15707
53200,15675
52291,15675
52291,14792
52238,14663
52139,14565
52011,14512
51871,14512
51084,14512
50956,14565
50857,14663
50804,14792
50804,14931
50804,15675
50594,15675
50525,15605
50525,15594
50650,15468
50749,15229
50750,14971
50651,14732
50468,14549
50229,14450
49971,14449
49732,14548
49599,14680
49468,14549
49229,14450
48971,14449
48732,14548
48651,14629
48608,14638
48446,14746
48446,14746
48125,15067
48125,15049
48037,15049
48125,14962
48125,14894
48125,14755
48071,14626
47973,14528
47844,14475
47637,14475
47550,14562
47550,15050
47557,15050
47557,15150
47550,15150
47550,15157
47450,15157
47450,15150
47442,15150
47442,15050
47450,15050
47450,14562
47362,14475
47155,14475
47026,14528
46928,14626
46927,14627
46914,14614
46851,14677
46832,14556
46599,14470
46351,14480
46167,14556
46148,14677
46500,15029
46505,15023
46576,15094
46570,15100
46576,15105
46505,15176
46500,15170
46429,15241
46429,15100
46077,14748
46000,14760
45922,14748
45851,14818
45851,14677
45832,14556
45599,14470
45351,14480
45167,14556
45148,14677
45500,15029
45851,14677
45851,14818
45570,15100
45922,15451
46000,15439
46077,15451
46429,15100
46429,15241
46148,15522
46151,15540
46132,15548
46080,15600
45919,15600
45868,15549
45848,15541
45851,15522
45500,15170
45429,15241
45148,15522
45151,15540
45132,15548
45087,15592
44998,15503
44956,15486
44922,15451
45000,15439
45077,15451
45429,15100
45077,14748
45000,14760
44922,14748
44851,14818
44851,14677
44832,14556
44599,14470
44351,14480
44167,14556
44148,14677
44500,15029
44851,14677
44851,14818
44570,15100
44576,15105
44505,15176
44500,15170
44494,15176
44429,15111
44423,15105
44429,15100
44077,14748
44000,14760
43922,14748
43851,14818
43570,15100
43922,15451
44000,15439
44077,15451
44043,15486
44001,15503
43912,15592
43868,15549
43848,15541
43851,15522
43500,15170
43494,15176
43423,15105
43429,15100
43423,15094
43494,15023
43500,15029
43851,14677
43832,14556
43599,14470
43351,14480
43167,14556
43148,14677
43085,14614
43072,14627
43071,14626
42973,14528
42844,14475
42637,14475
42550,14562
42550,15050
42557,15050
42557,15150
42550,15150
42550,15157
42450,15157
42450,15150
42450,15050
42450,14562
42362,14475
42155,14475
42026,14528
41928,14626
41875,14755
41875,14894
41875,14962
41962,15050
42450,15050
42450,15150
41962,15150
41875,15237
41875,15305
41875,15444
41928,15573
42017,15662
41949,15731
41850,15970
41849,16228
41948,16467
42131,16650
42370,16749
42628,16750
42867,16651
42919,16600
43080,16600
43131,16650
43370,16749
43628,16750
43867,16651
43912,16607
44001,16696
44056,16719
44146,16853
44192,16900
44191,16900
43999,16938
43837,17046
43837,17046
43348,17535
43009,17535
42880,17588
42782,17686
42729,17815
42729,17954
42729,18154
42546,18337
42438,18499
42399,18691
42400,18691
42400,25099
42399,25100
42438,25291
42546,25453
42601,25508
42505,25741
42504,26256
42701,26732
43065,27097
43541,27294
43625,27294
43610,27310
43521,27443
43490,27600
43490,28227
43426,28253
43328,28351
43275,28480
43275,28619
43275,28969
43328,29098
43330,29100
43328,29101
43275,29230
43275,29369
43275,29719
43287,29750
43275,29780
43275,29919
43275,30473
43274,30475
43274,30723
43275,30725
43275,31419
43328,31548
43426,31646
43555,31700
43694,31700
44244,31700
44373,31646
44400,31619
44426,31646
44555,31700
44694,31700
45244,31700
45373,31646
45400,31619
45426,31646
45555,31700
45694,31700
46244,31700
46373,31646
46400,31619
46426,31646
46555,31700
46694,31700
47244,31700
47373,31646
47400,31619
47426,31646
47555,31700
47694,31700
48120,31700
48310,31889
48331,31903
41718,31903
41718,14159
65368,14159
65368,31903
" /> 
</g>
<g style="fill:#FFFFFF; fill-opacity:0.0; 
stroke:#FFFFFF; stroke-width:59.0551; stroke-opacity:1; 
stroke-linecap:round; stroke-linejoin:round;">
</g>
<g style="fill:#FFFFFF; fill-opacity:1.0; 
stroke:#FFFFFF; stroke-width:59.0551; stroke-opacity:1; 
stroke-linecap:round; stroke-linejoin:round;">
<circle cx="48900" cy="30600" r="127.953" /> 
<circle cx="44900" cy="28000" r="68.8976" /> 
<circle cx="50500" cy="28900" r="68.8976" /> 
<circle cx="53600" cy="24100" r="68.8976" /> 
<circle cx="54200" cy="25200" r="68.8976" /> 
<circle cx="58100" cy="27300" r="68.8976" /> 
<circle cx="55300" cy="27300" r="68.8976" /> 
<circle cx="51600" cy="28100" r="68.8976" /> 
<circle cx="56600" cy="27700" r="68.8976" /> 
<circle cx="54500" cy="28000" r="68.8976" /> 
<circle cx="58600" cy="29500" r="68.8976" /> 
<circle cx="60800" cy="29300" r="127.953" /> 
<circle cx="56100" cy="26500" r="68.8976" /> 
<circle cx="54500" cy="23900" r="127.953" /> 
<circle cx="58900" cy="28700" r="68.8976" /> 
<circle cx="54700" cy="30100" r="127.953" /> 
<circle cx="53300" cy="22000" r="68.8976" /> 
<circle cx="54300" cy="21300" r="68.8976" /> 
<circle cx="48100" cy="17900" r="127.953" /> 
<circle cx="49900" cy="20700" r="127.953" /> 
<circle cx="45100" cy="20700" r="127.953" /> 
<circle cx="54400" cy="20400" r="127.953" /> 
<circle cx="51600" cy="20400" r="68.8976" /> 
<circle cx="56700" cy="20000" r="68.8976" /> 
<circle cx="51900" cy="26600" r="127.953" /> 
<circle cx="51400" cy="29600" r="127.953" /> 
<circle cx="60200" cy="19000" r="127.953" /> 
<circle cx="61600" cy="22500" r="127.953" /> 
<circle cx="61900" cy="30400" r="127.953" /> 
<circle cx="57000" cy="24800" r="68.8976" /> 
<circle cx="47900" cy="30500" r="127.953" /> 
<circle cx="61300" cy="15900" r="127.953" /> 
<circle cx="60800" cy="18400" r="127.953" /> 
<circle cx="46900" cy="30600" r="127.953" /> 
<circle cx="44400" cy="27700" r="68.8976" /> 
<circle cx="45900" cy="30600" r="127.953" /> 
<circle cx="43900" cy="30600" r="127.953" /> 
<circle cx="47500" cy="17400" r="127.953" /> 
<circle cx="47400" cy="19800" r="127.953" /> 
<circle cx="51200" cy="25100" r="68.8976" /> 
<circle cx="61700" cy="26900" r="68.8976" /> 
<circle cx="59100" cy="27400" r="127.953" /> 
<circle cx="63100" cy="25750" r="570.472" /> 
<circle cx="63100" cy="15750" r="570.472" /> 
<circle cx="62100" cy="18550" r="170.472" /> 
<circle cx="62100" cy="19650" r="170.472" /> 
<circle cx="62100" cy="20700" r="170.472" /> 
<circle cx="62100" cy="21800" r="170.472" /> 
<circle cx="62100" cy="22900" r="170.472" /> 
<circle cx="63100" cy="19100" r="170.472" /> 
<circle cx="63100" cy="20200" r="170.472" /> 
<circle cx="63100" cy="21250" r="170.472" /> 
<circle cx="63100" cy="22350" r="170.472" /> 
<circle cx="44500" cy="16100" r="170.472" /> 
<circle cx="43500" cy="16100" r="170.472" /> 
<circle cx="42500" cy="16100" r="170.472" /> 
<circle cx="47500" cy="16100" r="170.472" /> 
<circle cx="46500" cy="16100" r="170.472" /> 
<circle cx="45500" cy="16100" r="170.472" /> 
<circle cx="50700" cy="26900" r="170.472" /> 
<circle cx="49700" cy="26900" r="170.472" /> 
<circle cx="48700" cy="26900" r="170.472" /> 
<circle cx="49100" cy="18600" r="170.472" /> 
<circle cx="49100" cy="17600" r="170.472" /> 
<circle cx="50100" cy="18600" r="170.472" /> 
<circle cx="50100" cy="17600" r="170.472" /> 
<circle cx="47500" cy="15100" r="130.472" /> 
<circle cx="46500" cy="15100" r="130.472" /> 
<circle cx="45500" cy="15100" r="130.472" /> 
<circle cx="44500" cy="15100" r="130.472" /> 
<circle cx="43500" cy="15100" r="130.472" /> 
<circle cx="60800" cy="28400" r="130.472" /> 
<circle cx="60800" cy="27400" r="130.472" /> 
<circle cx="60800" cy="26400" r="130.472" /> 
<circle cx="60800" cy="25400" r="130.472" /> 
<circle cx="60800" cy="24400" r="130.472" /> 
<circle cx="60800" cy="23400" r="130.472" /> 
<circle cx="60800" cy="22400" r="130.472" /> 
<circle cx="60800" cy="21400" r="130.472" /> 
<circle cx="53200" cy="21200" r="130.472" /> 
<circle cx="52200" cy="21200" r="130.472" /> 
<circle cx="42500" cy="15100" r="130.472" /> 
<circle cx="64700" cy="29200" r="130.472" /> 
<circle cx="64700" cy="31200" r="130.472" /> 
<circle cx="61700" cy="29200" r="130.472" /> 
<circle cx="61700" cy="31200" r="130.472" /> 
<circle cx="55500" cy="31000" r="130.472" /> 
<circle cx="54500" cy="31000" r="130.472" /> 
<circle cx="53500" cy="31000" r="130.472" /> 
<circle cx="52500" cy="31000" r="130.472" /> 
<circle cx="52500" cy="29500" r="170.472" /> 
<circle cx="52500" cy="28500" r="170.472" /> 
<circle cx="53500" cy="29500" r="170.472" /> 
<circle cx="53500" cy="28500" r="170.472" /> 
<circle cx="54500" cy="29500" r="170.472" /> 
<circle cx="54500" cy="28500" r="170.472" /> 
<circle cx="55500" cy="29500" r="170.472" /> 
<circle cx="55500" cy="28500" r="170.472" /> 
<circle cx="49100" cy="16100" r="170.472" /> 
<circle cx="49100" cy="15100" r="170.472" /> 
<circle cx="50100" cy="16100" r="170.472" /> 
<circle cx="50100" cy="15100" r="170.472" /> 
<circle cx="48900" cy="25200" r="127.472" /> 
<circle cx="48900" cy="23200" r="127.472" /> 
</g>
<g style="fill:#FFFFFF; fill-opacity:1.0; 
stroke:#FFFFFF; stroke-width:400; stroke-opacity:1; 
stroke-linecap:round; stroke-linejoin:round;">
<path d="M43800 25700
L43800 26300
" />
<path d="M46200 25700
L46200 26300
" />
<path d="M44400 24000
L45000 24000
" />
</g>
<g style="fill:#FFFFFF; fill-opacity:1.0; 
stroke:#FFFFFF; stroke-width:59.0551; stroke-opacity:1; 
stroke-linecap:round; stroke-linejoin:round;">
<circle cx="54166" cy="16535" r="147.472" /> 
<circle cx="52434" cy="16535" r="147.472" /> 
</g> 
</svg>
