<?xml version="1.0" standalone="no"?>
 <!DOCTYPE svg PUBLIC "-//W3C//DTD SVG 1.1//EN" 
 "http://www.w3.org/Graphics/SVG/1.1/DTD/svg11.dtd"> 
<svg xmlns="http://www.w3.org/2000/svg" version="1.1" 
    width="29.7002cm" height="21.0007cm" viewBox="0 0 116930 82680 ">
<title>SVG Picture created as pholat_m8_brd-B_Cu.svg date 2013/09/09 15:28:57 </title>
  <desc>Picture generated by PCBNEW </desc>
<g style="fill:#000000; fill-opacity:1;stroke:#000000; stroke-opacity:1;
stroke-linecap:round; stroke-linejoin:round; "
 transform="translate(0 0) scale(1 1)">
</g>
<g style="fill:#000000; fill-opacity:0.0; 
stroke:#000000; stroke-width:98.4252; stroke-opacity:1; 
stroke-linecap:round; stroke-linejoin:round;">
<path d="M57834 17415
L57834 17809
" />
<path d="M57834 17434
L57796 17415
L57721 17415
L57684 17434
L57665 17453
L57646 17490
L57646 17603
L57665 17640
L57684 17659
L57721 17678
L57796 17678
L57834 17659
" />
<path d="M57478 17678
L57478 17284
" />
<path d="M57309 17678
L57309 17471
L57328 17434
L57365 17415
L57421 17415
L57459 17434
L57478 17453
" />
<path d="M57065 17678
L57103 17659
L57121 17640
L57140 17603
L57140 17490
L57121 17453
L57103 17434
L57065 17415
L57009 17415
L56971 17434
L56953 17453
L56934 17490
L56934 17603
L56953 17640
L56971 17659
L57009 17678
L57065 17678
" />
<path d="M56709 17678
L56746 17659
L56765 17621
L56765 17284
" />
<path d="M56390 17678
L56390 17471
L56409 17434
L56446 17415
L56521 17415
L56559 17434
" />
<path d="M56390 17659
L56428 17678
L56521 17678
L56559 17659
L56578 17621
L56578 17584
L56559 17546
L56521 17528
L56428 17528
L56390 17509
" />
<path d="M56259 17415
L56109 17415
" />
<path d="M56203 17284
L56203 17621
L56184 17659
L56146 17678
L56109 17678
" />
<path d="M58893 18327
L58893 18065
" />
<path d="M58893 18102
L58874 18083
L58837 18065
L58781 18065
L58743 18083
L58724 18121
L58724 18327
" />
<path d="M58724 18121
L58706 18083
L58668 18065
L58612 18065
L58574 18083
L58556 18121
L58556 18327
" />
<path d="M58312 18102
L58349 18083
L58368 18065
L58387 18027
L58387 18008
L58368 17971
L58349 17952
L58312 17934
L58237 17934
L58199 17952
L58181 17971
L58162 18008
L58162 18027
L58181 18065
L58199 18083
L58237 18102
L58312 18102
L58349 18121
L58368 18140
L58387 18177
L58387 18252
L58368 18290
L58349 18308
L58312 18327
L58237 18327
L58199 18308
L58181 18290
L58162 18252
L58162 18177
L58181 18140
L58199 18121
L58237 18102
" />
<path d="M58087 18365
L57787 18365
" />
<path d="M57749 18065
L57599 18065
" />
<path d="M57693 17934
L57693 18271
L57674 18308
L57637 18327
L57599 18327
" />
<path d="M57318 18308
L57356 18327
L57431 18327
L57468 18308
L57487 18271
L57487 18121
L57468 18083
L57431 18065
L57356 18065
L57318 18083
L57299 18121
L57299 18158
L57487 18196
" />
<path d="M57149 18308
L57112 18327
L57037 18327
L57000 18308
L56981 18271
L56981 18252
L57000 18215
L57037 18196
L57093 18196
L57131 18177
L57149 18140
L57149 18121
L57131 18083
L57093 18065
L57037 18065
L57000 18083
" />
<path d="M56868 18065
L56718 18065
" />
<path d="M56812 17934
L56812 18271
L56793 18308
L56756 18327
L56718 18327
" />
<path d="M56587 18327
L56587 17934
" />
<path d="M56587 18083
L56550 18065
L56475 18065
L56437 18083
L56418 18102
L56400 18140
L56400 18252
L56418 18290
L56437 18308
L56475 18327
L56550 18327
L56587 18308
" />
<path d="M56175 18327
L56212 18308
L56231 18290
L56250 18252
L56250 18140
L56231 18102
L56212 18083
L56175 18065
L56118 18065
L56081 18083
L56062 18102
L56043 18140
L56043 18252
L56062 18290
L56081 18308
L56118 18327
L56175 18327
" />
<path d="M55706 18327
L55706 18121
L55725 18083
L55762 18065
L55837 18065
L55875 18083
" />
<path d="M55706 18308
L55743 18327
L55837 18327
L55875 18308
L55893 18271
L55893 18233
L55875 18196
L55837 18177
L55743 18177
L55706 18158
" />
<path d="M55518 18327
L55518 18065
" />
<path d="M55518 18140
L55500 18102
L55481 18083
L55443 18065
L55406 18065
" />
<path d="M55106 18327
L55106 17934
" />
<path d="M55106 18308
L55143 18327
L55218 18327
L55256 18308
L55275 18290
L55293 18252
L55293 18140
L55275 18102
L55256 18083
L55218 18065
L55143 18065
L55106 18083
" />
</g>
<g style="fill:#000000; fill-opacity:0.0; 
stroke:#000000; stroke-width:59.0551; stroke-opacity:1; 
stroke-linecap:round; stroke-linejoin:round;">
</g>
<g style="fill:#000000; fill-opacity:1.0; 
stroke:#000000; stroke-width:59.0551; stroke-opacity:1; 
stroke-linecap:round; stroke-linejoin:round;">
<polyline style="fill-rule:evenodd;"
points="58519,25193
58519,25606
58106,25606
58106,25193
58519,25193
" /> 
<polyline style="fill-rule:evenodd;"
points="57693,25193
57693,25606
57280,25606
57280,25193
57693,25193
" /> 
<polyline style="fill-rule:evenodd;"
points="58519,24193
58519,24606
58106,24606
58106,24193
58519,24193
" /> 
<polyline style="fill-rule:evenodd;"
points="57693,24193
57693,24606
57280,24606
57280,24193
57693,24193
" /> 
<polyline style="fill-rule:evenodd;"
points="58519,23193
58519,23606
58106,23606
58106,23193
58519,23193
" /> 
<polyline style="fill-rule:evenodd;"
points="57693,23193
57693,23606
57280,23606
57280,23193
57693,23193
" /> 
<polyline style="fill-rule:evenodd;"
points="58519,22193
58519,22606
58106,22606
58106,22193
58519,22193
" /> 
<polyline style="fill-rule:evenodd;"
points="57693,22193
57693,22606
57280,22606
57280,22193
57693,22193
" /> 
<polyline style="fill-rule:evenodd;"
points="58519,21193
58519,21606
58106,21606
58106,21193
58519,21193
" /> 
<polyline style="fill-rule:evenodd;"
points="57693,21193
57693,21606
57280,21606
57280,21193
57693,21193
" /> 
<polyline style="fill-rule:evenodd;"
points="46879,29845
46879,29354
47170,29354
47170,29845
46879,29845
" /> 
<polyline style="fill-rule:evenodd;"
points="47629,29845
47629,29354
47920,29354
47920,29845
47629,29845
" /> 
<polyline style="fill-rule:evenodd;"
points="45879,28845
45879,28354
46170,28354
46170,28845
45879,28845
" /> 
<polyline style="fill-rule:evenodd;"
points="46629,28845
46629,28354
46920,28354
46920,28845
46629,28845
" /> 
<polyline style="fill-rule:evenodd;"
points="44879,29845
44879,29354
45170,29354
45170,29845
44879,29845
" /> 
<polyline style="fill-rule:evenodd;"
points="45629,29845
45629,29354
45920,29354
45920,29845
45629,29845
" /> 
<polyline style="fill-rule:evenodd;"
points="43879,28845
43879,28354
44170,28354
44170,28845
43879,28845
" /> 
<polyline style="fill-rule:evenodd;"
points="44629,28845
44629,28354
44920,28354
44920,28845
44629,28845
" /> 
<polyline style="fill-rule:evenodd;"
points="42879,29845
42879,29354
43170,29354
43170,29845
42879,29845
" /> 
<polyline style="fill-rule:evenodd;"
points="43629,29845
43629,29354
43920,29354
43920,29845
43629,29845
" /> 
<polyline style="fill-rule:evenodd;"
points="58519,26193
58519,26606
58106,26606
58106,26193
58519,26193
" /> 
<polyline style="fill-rule:evenodd;"
points="57693,26193
57693,26606
57280,26606
57280,26193
57693,26193
" /> 
<circle cx="63100" cy="25750" r="720.472" /> 
<circle cx="63100" cy="15750" r="720.472" /> 
<polyline style="fill-rule:evenodd;"
points="61829,18279
62370,18279
62370,18820
61829,18820
61829,18279
" /> 
<circle cx="62100" cy="19650" r="270.472" /> 
<circle cx="62100" cy="20700" r="270.472" /> 
<circle cx="62100" cy="21800" r="270.472" /> 
<circle cx="62100" cy="22900" r="270.472" /> 
<circle cx="63100" cy="19100" r="270.472" /> 
<circle cx="63100" cy="20200" r="270.472" /> 
<circle cx="63100" cy="21250" r="270.472" /> 
<circle cx="63100" cy="22350" r="270.472" /> 
<polyline style="fill-rule:evenodd;"
points="44770,15829
44770,16370
44229,16370
44229,15829
44770,15829
" /> 
<circle cx="43500" cy="16100" r="270.472" /> 
<circle cx="42500" cy="16100" r="270.472" /> 
<polyline style="fill-rule:evenodd;"
points="47770,15829
47770,16370
47229,16370
47229,15829
47770,15829
" /> 
<circle cx="46500" cy="16100" r="270.472" /> 
<circle cx="45500" cy="16100" r="270.472" /> 
<polyline style="fill-rule:evenodd;"
points="50970,26629
50970,27170
50429,27170
50429,26629
50970,26629
" /> 
<circle cx="49700" cy="26900" r="270.472" /> 
<circle cx="48700" cy="26900" r="270.472" /> 
<polyline style="fill-rule:evenodd;"
points="48829,18870
48829,18329
49370,18329
49370,18870
48829,18870
" /> 
<circle cx="49100" cy="17600" r="270.472" /> 
<circle cx="50100" cy="18600" r="270.472" /> 
<circle cx="50100" cy="17600" r="270.472" /> 
<polyline style="fill-rule:evenodd;"
points="47745,14854
47745,15345
47254,15345
47254,14854
47745,14854
" /> 
<circle cx="46500" cy="15100" r="245.472" /> 
<circle cx="45500" cy="15100" r="245.472" /> 
<circle cx="44500" cy="15100" r="245.472" /> 
<circle cx="43500" cy="15100" r="245.472" /> 
<polyline style="fill-rule:evenodd;"
points="56870,29879
56870,31320
56329,31320
56329,29879
56870,29879
" /> 
<polyline style="fill-rule:evenodd;"
points="60870,29879
60870,31320
60329,31320
60329,29879
60870,29879
" /> 
<polyline style="fill-rule:evenodd;"
points="58870,29879
58870,31320
58329,31320
58329,29879
58870,29879
" /> 
<polyline style="fill-rule:evenodd;"
points="59870,29879
59870,31320
59329,31320
59329,29879
59870,29879
" /> 
<polyline style="fill-rule:evenodd;"
points="57870,29879
57870,31320
57329,31320
57329,29879
57870,29879
" /> 
<polyline style="fill-rule:evenodd;"
points="61045,28645
60554,28645
60554,28154
61045,28154
61045,28645
" /> 
<circle cx="60800" cy="27400" r="245.472" /> 
<circle cx="60800" cy="26400" r="245.472" /> 
<circle cx="60800" cy="25400" r="245.472" /> 
<circle cx="60800" cy="24400" r="245.472" /> 
<circle cx="60800" cy="23400" r="245.472" /> 
<circle cx="60800" cy="22400" r="245.472" /> 
<circle cx="60800" cy="21400" r="245.472" /> 
<polyline style="fill-rule:evenodd;"
points="53445,20954
53445,21445
52954,21445
52954,20954
53445,20954
" /> 
<circle cx="52200" cy="21200" r="245.472" /> 
<polyline style="fill-rule:evenodd;"
points="42254,15345
42254,14854
42745,14854
42745,15345
42254,15345
" /> 
<polyline style="fill-rule:evenodd;"
points="56220,24554
56220,25045
55929,25045
55929,24554
56220,24554
" /> 
<polyline style="fill-rule:evenodd;"
points="55470,24554
55470,25045
55179,25045
55179,24554
55470,24554
" /> 
<polyline style="fill-rule:evenodd;"
points="60120,25154
60120,25645
59829,25645
59829,25154
60120,25154
" /> 
<polyline style="fill-rule:evenodd;"
points="59370,25154
59370,25645
59079,25645
59079,25154
59370,25154
" /> 
<polyline style="fill-rule:evenodd;"
points="60120,24154
60120,24645
59829,24645
59829,24154
60120,24154
" /> 
<polyline style="fill-rule:evenodd;"
points="59370,24154
59370,24645
59079,24645
59079,24154
59370,24154
" /> 
<polyline style="fill-rule:evenodd;"
points="60120,23154
60120,23645
59829,23645
59829,23154
60120,23154
" /> 
<polyline style="fill-rule:evenodd;"
points="59370,23154
59370,23645
59079,23645
59079,23154
59370,23154
" /> 
<polyline style="fill-rule:evenodd;"
points="60120,22154
60120,22645
59829,22645
59829,22154
60120,22154
" /> 
<polyline style="fill-rule:evenodd;"
points="59370,22154
59370,22645
59079,22645
59079,22154
59370,22154
" /> 
<polyline style="fill-rule:evenodd;"
points="60120,21154
60120,21645
59829,21645
59829,21154
60120,21154
" /> 
<polyline style="fill-rule:evenodd;"
points="59370,21154
59370,21645
59079,21645
59079,21154
59370,21154
" /> 
<polyline style="fill-rule:evenodd;"
points="60120,26154
60120,26645
59829,26645
59829,26154
60120,26154
" /> 
<polyline style="fill-rule:evenodd;"
points="59370,26154
59370,26645
59079,26645
59079,26154
59370,26154
" /> 
<circle cx="64700" cy="29200" r="245.472" /> 
<circle cx="64700" cy="31200" r="245.472" /> 
<circle cx="61700" cy="29200" r="245.472" /> 
<circle cx="61700" cy="31200" r="245.472" /> 
<polyline style="fill-rule:evenodd;"
points="46829,19504
47970,19504
47970,20095
46829,20095
46829,19504
" /> 
<polyline style="fill-rule:evenodd;"
points="43729,19529
46070,19529
46070,21870
43729,21870
43729,19529
" /> 
<polyline style="fill-rule:evenodd;"
points="46829,21304
47970,21304
47970,21895
46829,21895
46829,21304
" /> 
<polyline style="fill-rule:evenodd;"
points="55745,30754
55745,31245
55254,31245
55254,30754
55745,30754
" /> 
<circle cx="54500" cy="31000" r="245.472" /> 
<circle cx="53500" cy="31000" r="245.472" /> 
<circle cx="52500" cy="31000" r="245.472" /> 
<polyline style="fill-rule:evenodd;"
points="52229,29770
52229,29229
52770,29229
52770,29770
52229,29770
" /> 
<circle cx="52500" cy="28500" r="270.472" /> 
<circle cx="53500" cy="29500" r="270.472" /> 
<circle cx="53500" cy="28500" r="270.472" /> 
<circle cx="54500" cy="29500" r="270.472" /> 
<circle cx="54500" cy="28500" r="270.472" /> 
<circle cx="55500" cy="29500" r="270.472" /> 
<circle cx="55500" cy="28500" r="270.472" /> 
<polyline style="fill-rule:evenodd;"
points="47948,22765
47948,22234
48401,22234
48401,22765
47948,22765
" /> 
<polyline style="fill-rule:evenodd;"
points="47198,22765
47198,22234
47651,22234
47651,22765
47198,22765
" /> 
<polyline style="fill-rule:evenodd;"
points="55551,23734
55551,24265
55098,24265
55098,23734
55551,23734
" /> 
<polyline style="fill-rule:evenodd;"
points="56301,23734
56301,24265
55848,24265
55848,23734
56301,23734
" /> 
<polyline style="fill-rule:evenodd;"
points="48829,16370
48829,15829
49370,15829
49370,16370
48829,16370
" /> 
<circle cx="49100" cy="15100" r="270.472" /> 
<circle cx="50100" cy="16100" r="270.472" /> 
<circle cx="50100" cy="15100" r="270.472" /> 
<circle cx="48900" cy="25200" r="320.472" /> 
<circle cx="48900" cy="23200" r="320.472" /> 
<circle cx="43800" cy="26000" r="915.472" /> 
<polyline style="fill-rule:evenodd;"
points="45284,26915
45284,25084
47115,25084
47115,26915
45284,26915
" /> 
<circle cx="44700" cy="24000" r="915.472" /> 
<circle cx="48900" cy="30600" r="246.063" /> 
<circle cx="44900" cy="28000" r="167.323" /> 
<circle cx="50500" cy="28900" r="167.323" /> 
<circle cx="53600" cy="24100" r="167.323" /> 
<circle cx="54200" cy="25200" r="167.323" /> 
<circle cx="58100" cy="27300" r="167.323" /> 
<circle cx="55300" cy="27300" r="167.323" /> 
<circle cx="51600" cy="28100" r="167.323" /> 
<circle cx="56600" cy="27700" r="167.323" /> 
<circle cx="54500" cy="28000" r="167.323" /> 
<circle cx="58600" cy="29500" r="167.323" /> 
<circle cx="60800" cy="29300" r="246.063" /> 
<circle cx="56100" cy="26500" r="167.323" /> 
<circle cx="54500" cy="23900" r="246.063" /> 
<circle cx="58900" cy="28700" r="167.323" /> 
<circle cx="54700" cy="30100" r="246.063" /> 
<circle cx="53300" cy="22000" r="167.323" /> 
<circle cx="54300" cy="21300" r="167.323" /> 
<circle cx="48100" cy="17900" r="246.063" /> 
<circle cx="49900" cy="20700" r="246.063" /> 
<circle cx="45100" cy="20700" r="246.063" /> 
<circle cx="54400" cy="20400" r="246.063" /> 
<circle cx="51600" cy="20400" r="167.323" /> 
<circle cx="56700" cy="20000" r="167.323" /> 
<circle cx="51900" cy="26600" r="246.063" /> 
<circle cx="51400" cy="29600" r="246.063" /> 
<circle cx="60200" cy="19000" r="246.063" /> 
<circle cx="61600" cy="22500" r="246.063" /> 
<circle cx="61900" cy="30400" r="246.063" /> 
<circle cx="57000" cy="24800" r="167.323" /> 
<circle cx="47900" cy="30500" r="246.063" /> 
<circle cx="61300" cy="15900" r="246.063" /> 
<circle cx="60800" cy="18400" r="246.063" /> 
<circle cx="46900" cy="30600" r="246.063" /> 
<circle cx="44400" cy="27700" r="167.323" /> 
<circle cx="45900" cy="30600" r="246.063" /> 
<circle cx="43900" cy="30600" r="246.063" /> 
<circle cx="47500" cy="17400" r="246.063" /> 
<circle cx="47400" cy="19800" r="246.063" /> 
<circle cx="51200" cy="25100" r="167.323" /> 
<circle cx="61700" cy="26900" r="167.323" /> 
<circle cx="59100" cy="27400" r="246.063" /> 
</g>
<g style="fill:#000000; fill-opacity:1.0; 
stroke:#000000; stroke-width:150; stroke-opacity:1; 
stroke-linecap:round; stroke-linejoin:round;">
<path d="M42500 30400
L42500 16100
" />
<path d="M43200 31100
L42500 30400
" />
<path d="M48400 31100
L43200 31100
" />
<path d="M48900 30600
L48400 31100
" />
<path d="M47500 16100
L47500 16200
" />
<path d="M48175 23325
L48175 22500
" />
<path d="M46000 23300
L48175 23325
" />
<path d="M47500 16200
L46900 16800
" />
</g>
<g style="fill:#000000; fill-opacity:1.0; 
stroke:#000000; stroke-width:300; stroke-opacity:1; 
stroke-linecap:round; stroke-linejoin:round;">
<path d="M47400 21600
L48100 21600
" />
<path d="M48100 21600
L48175 21675
" />
<path d="M48175 21675
L48175 22500
" />
</g>
<g style="fill:#000000; fill-opacity:1.0; 
stroke:#000000; stroke-width:150; stroke-opacity:1; 
stroke-linecap:round; stroke-linejoin:round;">
<path d="M46900 16800
L46900 18400
" />
<path d="M46900 18400
L46300 19000
" />
<path d="M46300 19000
L43400 19000
" />
<path d="M43400 19000
L43100 19300
" />
<path d="M45000 22400
L46000 23300
" />
<path d="M43100 22400
L45000 22400
" />
<path d="M43100 19300
L43100 22400
" />
</g>
<g style="fill:#000000; fill-opacity:1.0; 
stroke:#000000; stroke-width:100; stroke-opacity:1; 
stroke-linecap:round; stroke-linejoin:round;">
<path d="M45000 28000
L44900 28000
" />
</g>
<g style="fill:#000000; fill-opacity:1.0; 
stroke:#000000; stroke-width:120; stroke-opacity:1; 
stroke-linecap:round; stroke-linejoin:round;">
<path d="M49600 28000
L45000 28000
" />
<path d="M50500 28900
L49600 28000
" />
<path d="M60800 26400
L59975 26400
" />
<path d="M60800 25400
L59975 25400
" />
<path d="M60800 24400
L59975 24400
" />
<path d="M60800 23400
L59975 23400
" />
<path d="M60800 22400
L59975 22400
" />
<path d="M60800 21400
L59975 21400
" />
<path d="M53600 24600
L53600 24100
" />
<path d="M54200 25200
L53600 24600
" />
<path d="M58100 27300
L55300 27300
" />
<path d="M54300 27800
L54500 28000
" />
<path d="M51900 27800
L54300 27800
" />
<path d="M51600 28100
L51900 27800
" />
</g>
<g style="fill:#000000; fill-opacity:1.0; 
stroke:#000000; stroke-width:100; stroke-opacity:1; 
stroke-linecap:round; stroke-linejoin:round;">
<path d="M56600 27700
L56500 27800
" />
</g>
<g style="fill:#000000; fill-opacity:1.0; 
stroke:#000000; stroke-width:120; stroke-opacity:1; 
stroke-linecap:round; stroke-linejoin:round;">
<path d="M56500 27800
L54700 27800
" />
<path d="M54700 27800
L54500 28000
" />
<path d="M60600 29500
L58600 29500
" />
</g>
<g style="fill:#000000; fill-opacity:1.0; 
stroke:#000000; stroke-width:100; stroke-opacity:1; 
stroke-linecap:round; stroke-linejoin:round;">
<path d="M60800 29300
L60600 29500
" />
</g>
<g style="fill:#000000; fill-opacity:1.0; 
stroke:#000000; stroke-width:120; stroke-opacity:1; 
stroke-linecap:round; stroke-linejoin:round;">
<path d="M54800 24800
L55325 24800
" />
<path d="M54800 24200
L55125 24200
" />
<path d="M55125 24200
L55325 24000
" />
<path d="M56100 26500
L54800 25200
" />
<path d="M54800 25200
L54800 24800
" />
<path d="M54800 24200
L54500 23900
" />
<path d="M54800 24800
L54800 24200
" />
<path d="M56500 28700
L58900 28700
" />
<path d="M56000 29200
L56500 28700
" />
<path d="M56000 29900
L56000 29200
" />
<path d="M55800 30100
L56000 29900
" />
<path d="M54700 30100
L55800 30100
" />
<path d="M53800 22000
L53300 22000
" />
</g>
<g style="fill:#000000; fill-opacity:1.0; 
stroke:#000000; stroke-width:100; stroke-opacity:1; 
stroke-linecap:round; stroke-linejoin:round;">
<path d="M53900 21900
L53800 22000
" />
</g>
<g style="fill:#000000; fill-opacity:1.0; 
stroke:#000000; stroke-width:120; stroke-opacity:1; 
stroke-linecap:round; stroke-linejoin:round;">
<path d="M53900 21700
L53900 21900
" />
<path d="M54300 21300
L53900 21700
" />
</g>
<g style="fill:#000000; fill-opacity:1.0; 
stroke:#000000; stroke-width:150; stroke-opacity:1; 
stroke-linecap:round; stroke-linejoin:round;">
<path d="M48300 17900
L48100 17900
" />
</g>
<g style="fill:#000000; fill-opacity:1.0; 
stroke:#000000; stroke-width:300; stroke-opacity:1; 
stroke-linecap:round; stroke-linejoin:round;">
<path d="M48800 20700
L48800 19500
" />
<path d="M48000 15100
L47500 15100
" />
<path d="M48300 15400
L48000 15100
" />
<path d="M48300 19000
L48300 17900
" />
<path d="M48300 17900
L48300 15400
" />
<path d="M48800 19500
L48300 19000
" />
<path d="M47425 22500
L45900 22500
" />
<path d="M44900 21500
L44900 20700
" />
<path d="M45900 22500
L44900 21500
" />
<path d="M45100 20700
L48800 20700
" />
<path d="M48800 20700
L49900 20700
" />
</g>
<g style="fill:#000000; fill-opacity:1.0; 
stroke:#000000; stroke-width:150; stroke-opacity:1; 
stroke-linecap:round; stroke-linejoin:round;">
<path d="M61900 30400
L62400 29900
" />
<path d="M61600 25900
L61600 22500
" />
<path d="M62400 26700
L61600 25900
" />
<path d="M62400 29900
L62400 26700
" />
<path d="M54400 20400
L51600 20400
" />
</g>
<g style="fill:#000000; fill-opacity:1.0; 
stroke:#000000; stroke-width:100; stroke-opacity:1; 
stroke-linecap:round; stroke-linejoin:round;">
<path d="M57500 20800
L57487 20813
" />
</g>
<g style="fill:#000000; fill-opacity:1.0; 
stroke:#000000; stroke-width:150; stroke-opacity:1; 
stroke-linecap:round; stroke-linejoin:round;">
<path d="M56700 20000
L57500 20800
" />
<path d="M44200 27200
L43900 27500
" />
<path d="M44200 27200
L44600 27200
" />
<path d="M45000 27600
L44600 27200
" />
<path d="M51100 27600
L45000 27600
" />
<path d="M43900 28475
L44025 28600
" />
<path d="M43900 27500
L43900 28475
" />
<path d="M51900 26600
L51900 27100
" />
<path d="M51100 27600
L51400 27600
" />
<path d="M51400 27600
L51900 27100
" />
<path d="M50900 27800
L50900 28100
" />
<path d="M51400 29600
L51400 28700
" />
</g>
<g style="fill:#000000; fill-opacity:1.0; 
stroke:#000000; stroke-width:100; stroke-opacity:1; 
stroke-linecap:round; stroke-linejoin:round;">
<path d="M51400 28700
L51400 28600
" />
</g>
<g style="fill:#000000; fill-opacity:1.0; 
stroke:#000000; stroke-width:150; stroke-opacity:1; 
stroke-linecap:round; stroke-linejoin:round;">
<path d="M51400 28600
L50900 28100
" />
<path d="M50900 27800
L51100 27600
" />
<path d="M57487 20813
L57487 21400
" />
<path d="M59300 19000
L57487 20813
" />
<path d="M59700 19000
L59300 19000
" />
<path d="M60200 19000
L59700 19000
" />
<path d="M61200 22900
L57487 22900
" />
<path d="M61600 22500
L61200 22900
" />
</g>
<g style="fill:#000000; fill-opacity:1.0; 
stroke:#000000; stroke-width:100; stroke-opacity:1; 
stroke-linecap:round; stroke-linejoin:round;">
<path d="M57487 22900
L57500 22900
" />
<path d="M57500 22900
L57487 22900
" />
</g>
<g style="fill:#000000; fill-opacity:1.0; 
stroke:#000000; stroke-width:150; stroke-opacity:1; 
stroke-linecap:round; stroke-linejoin:round;">
<path d="M61700 30600
L60600 30600
" />
<path d="M61900 30400
L61700 30600
" />
<path d="M56075 24000
L57487 24000
" />
</g>
<g style="fill:#000000; fill-opacity:1.0; 
stroke:#000000; stroke-width:100; stroke-opacity:1; 
stroke-linecap:round; stroke-linejoin:round;">
<path d="M57487 24000
L57500 24000
" />
<path d="M57500 24000
L57487 24000
" />
<path d="M57487 24400
L57200 24400
" />
<path d="M57000 24600
L57000 24800
" />
<path d="M57200 24400
L57000 24600
" />
</g>
<g style="fill:#000000; fill-opacity:1.0; 
stroke:#000000; stroke-width:150; stroke-opacity:1; 
stroke-linecap:round; stroke-linejoin:round;">
<path d="M57487 22400
L57487 21400
" />
<path d="M57487 23400
L57487 22900
" />
<path d="M57487 22900
L57487 22400
" />
<path d="M57487 24400
L57487 24000
" />
<path d="M57487 24000
L57487 23400
" />
<path d="M57487 25400
L57487 24400
" />
<path d="M57487 26400
L57487 25400
" />
<path d="M44025 28600
L43025 29600
" />
<path d="M45025 29600
L44025 28600
" />
<path d="M46025 28600
L45025 29600
" />
<path d="M47025 29600
L46025 28600
" />
<path d="M60600 30600
L59600 30600
" />
<path d="M59600 30600
L58600 30600
" />
<path d="M58600 30600
L57600 30600
" />
</g>
<g style="fill:#000000; fill-opacity:1.0; 
stroke:#000000; stroke-width:120; stroke-opacity:1; 
stroke-linecap:round; stroke-linejoin:round;">
<path d="M59225 25400
L58313 25400
" />
<path d="M59225 26400
L58313 26400
" />
<path d="M47775 29600
L47775 30375
" />
<path d="M47775 30375
L47900 30500
" />
<path d="M60800 18400
L61300 17900
" />
<path d="M61300 17900
L61300 15900
" />
</g>
<g style="fill:#000000; fill-opacity:1.0; 
stroke:#000000; stroke-width:100; stroke-opacity:1; 
stroke-linecap:round; stroke-linejoin:round;">
<path d="M46775 28600
L47000 28600
" />
</g>
<g style="fill:#000000; fill-opacity:1.0; 
stroke:#000000; stroke-width:120; stroke-opacity:1; 
stroke-linecap:round; stroke-linejoin:round;">
<path d="M47100 30600
L46900 30600
" />
<path d="M47400 30300
L47100 30600
" />
<path d="M47400 29000
L47400 30300
" />
</g>
<g style="fill:#000000; fill-opacity:1.0; 
stroke:#000000; stroke-width:100; stroke-opacity:1; 
stroke-linecap:round; stroke-linejoin:round;">
<path d="M47000 28600
L47400 29000
" />
</g>
<g style="fill:#000000; fill-opacity:1.0; 
stroke:#000000; stroke-width:120; stroke-opacity:1; 
stroke-linecap:round; stroke-linejoin:round;">
<path d="M44775 28600
L44775 28475
" />
<path d="M44400 28100
L44400 27700
" />
<path d="M44775 28475
L44400 28100
" />
</g>
<g style="fill:#000000; fill-opacity:1.0; 
stroke:#000000; stroke-width:150; stroke-opacity:1; 
stroke-linecap:round; stroke-linejoin:round;">
<path d="M45775 29600
L45900 29600
" />
<path d="M45900 29600
L45900 30600
" />
</g>
<g style="fill:#000000; fill-opacity:1.0; 
stroke:#000000; stroke-width:120; stroke-opacity:1; 
stroke-linecap:round; stroke-linejoin:round;">
<path d="M59225 21400
L58313 21400
" />
<path d="M43775 29600
L43775 30475
" />
<path d="M43775 30475
L43900 30600
" />
<path d="M59225 22400
L58313 22400
" />
<path d="M58313 23400
L59225 23400
" />
<path d="M59225 24400
L58313 24400
" />
</g>
<g style="fill:#000000; fill-opacity:1.0; 
stroke:#000000; stroke-width:150; stroke-opacity:1; 
stroke-linecap:round; stroke-linejoin:round;">
<path d="M47400 17500
L47400 19800
" />
<path d="M47500 17400
L47400 17500
" />
<path d="M50100 17600
L50500 17600
" />
<path d="M51200 18300
L51200 25100
" />
<path d="M50500 17600
L51200 18300
" />
<path d="M51200 25100
L53450 25100
" />
<path d="M53450 25100
L53950 25700
" />
<path d="M53950 25700
L54700 25700
" />
<path d="M54700 25700
L56000 27000
" />
<path d="M56000 27000
L57200 27000
" />
</g>
<g style="fill:#000000; fill-opacity:1.0; 
stroke:#000000; stroke-width:100; stroke-opacity:1; 
stroke-linecap:round; stroke-linejoin:round;">
<path d="M59100 27300
L59100 27400
" />
</g>
<g style="fill:#000000; fill-opacity:1.0; 
stroke:#000000; stroke-width:150; stroke-opacity:1; 
stroke-linecap:round; stroke-linejoin:round;">
<path d="M59500 26900
L59100 27300
" />
<path d="M61700 26900
L59500 26900
" />
</g>
<g style="fill:#000000; fill-opacity:1.0; 
stroke:#000000; stroke-width:120; stroke-opacity:1; 
stroke-linecap:round; stroke-linejoin:round;">
<path d="M56075 24800
L56075 25875
" />
<path d="M56075 25875
L57200 27000
" />
</g>
<g style="fill:#000000; fill-opacity:1.0; 
stroke:#000000; stroke-width:150; stroke-opacity:1; 
stroke-linecap:round; stroke-linejoin:round;">
<path d="M57200 27000
L57800 27000
" />
<path d="M58800 27400
L59100 27400
" />
<path d="M58300 26900
L58800 27400
" />
<path d="M57900 26900
L58300 26900
" />
<path d="M57800 27000
L57900 26900
" />
<path d="M59200 27500
L59100 27400
" />
<path d="M56600 29500
L57000 29100
" />
<path d="M57000 29100
L59300 29100
" />
<path d="M59300 29100
L59800 28600
" />
<path d="M59800 28600
L59800 28000
" />
<path d="M59800 28000
L59200 27500
" />
<path d="M56600 30600
L56600 29500
" />
</g>
<g style="fill:#000000; fill-opacity:1.0; 
stroke:#000000; stroke-width:59.0551; stroke-opacity:1; 
stroke-linecap:round; stroke-linejoin:round;">
<polyline style="fill-rule:evenodd;"
points="44082,28650
44075,28650
44075,28657
43975,28657
43975,28650
43587,28650
43500,28737
43500,28805
43500,28944
43515,28981
43401,29028
43400,29030
43398,29028
43269,28975
43162,28975
43075,29062
43075,29550
43082,29550
43082,29650
43075,29650
43075,30137
43162,30225
43269,30225
43365,30185
43365,30257
43274,30475
43274,30573
42925,30223
42925,30187
42975,30137
42975,29650
42967,29650
42967,29550
42975,29550
42975,29062
42925,29012
42925,26956
43065,27097
43541,27294
44031,27295
43936,27389
43853,27590
43853,27808
43936,28009
43974,28048
43974,28062
43887,27975
43780,27975
43651,28028
43553,28126
43500,28255
43500,28394
43500,28462
43587,28550
43975,28550
43975,28542
44075,28542
44075,28550
44082,28550
44082,28650
" /> 
</g>
<g style="fill:#000000; fill-opacity:0.0; 
stroke:#000000; stroke-width:100; stroke-opacity:1; 
stroke-linecap:round; stroke-linejoin:round;">
<polyline fill="none;"
points="44082,28650
44075,28650
44075,28657
43975,28657
43975,28650
43587,28650
43500,28737
43500,28805
43500,28944
43515,28981
43401,29028
43400,29030
43398,29028
43269,28975
43162,28975
43075,29062
43075,29550
43082,29550
43082,29650
43075,29650
43075,30137
43162,30225
43269,30225
43365,30185
43365,30257
43274,30475
43274,30573
42925,30223
42925,30187
42975,30137
42975,29650
42967,29650
42967,29550
42975,29550
42975,29062
42925,29012
42925,26956
43065,27097
43541,27294
44031,27295
43936,27389
43853,27590
43853,27808
43936,28009
43974,28048
43974,28062
43887,27975
43780,27975
43651,28028
43553,28126
43500,28255
43500,28394
43500,28462
43587,28550
43975,28550
43975,28542
44075,28542
44075,28550
44082,28550
44082,28650
" /> 
</g>
<g style="fill:#000000; fill-opacity:1.0; 
stroke:#000000; stroke-width:59.0551; stroke-opacity:1; 
stroke-linecap:round; stroke-linejoin:round;">
<polyline style="fill-rule:evenodd;"
points="45431,30183
45369,30245
45274,30475
45274,30675
44975,30675
44975,30137
44975,29650
44587,29650
44500,29737
44500,29805
44500,29944
44553,30073
44651,30171
44780,30225
44887,30225
44975,30137
44975,30675
44525,30675
44525,30476
44430,30246
44254,30069
44249,30067
44300,29944
44300,29805
44300,29255
44284,29218
44398,29171
44400,29169
44401,29171
44515,29218
44500,29255
44500,29394
44500,29462
44587,29550
44975,29550
44975,29542
45075,29542
45075,29550
45082,29550
45082,29650
45075,29650
45075,30137
45162,30225
45269,30225
45398,30171
45400,30169
45401,30171
45431,30183
" /> 
</g>
<g style="fill:#000000; fill-opacity:0.0; 
stroke:#000000; stroke-width:100; stroke-opacity:1; 
stroke-linecap:round; stroke-linejoin:round;">
<polyline fill="none;"
points="45431,30183
45369,30245
45274,30475
45274,30675
44975,30675
44975,30137
44975,29650
44587,29650
44500,29737
44500,29805
44500,29944
44553,30073
44651,30171
44780,30225
44887,30225
44975,30137
44975,30675
44525,30675
44525,30476
44430,30246
44254,30069
44249,30067
44300,29944
44300,29805
44300,29255
44284,29218
44398,29171
44400,29169
44401,29171
44515,29218
44500,29255
44500,29394
44500,29462
44587,29550
44975,29550
44975,29542
45075,29542
45075,29550
45082,29550
45082,29650
45075,29650
45075,30137
45162,30225
45269,30225
45398,30171
45400,30169
45401,30171
45431,30183
" /> 
</g>
<g style="fill:#000000; fill-opacity:1.0; 
stroke:#000000; stroke-width:59.0551; stroke-opacity:1; 
stroke-linecap:round; stroke-linejoin:round;">
<polyline style="fill-rule:evenodd;"
points="46082,28650
46075,28650
46075,28657
45975,28657
45975,28650
45587,28650
45500,28737
45500,28805
45500,28944
45515,28981
45401,29028
45400,29030
45398,29028
45284,28981
45300,28944
45300,28805
45300,28410
45500,28410
45500,28462
45587,28550
45975,28550
45975,28542
46075,28542
46075,28550
46082,28550
46082,28650
" /> 
</g>
<g style="fill:#000000; fill-opacity:0.0; 
stroke:#000000; stroke-width:100; stroke-opacity:1; 
stroke-linecap:round; stroke-linejoin:round;">
<polyline fill="none;"
points="46082,28650
46075,28650
46075,28657
45975,28657
45975,28650
45587,28650
45500,28737
45500,28805
45500,28944
45515,28981
45401,29028
45400,29030
45398,29028
45284,28981
45300,28944
45300,28805
45300,28410
45500,28410
45500,28462
45587,28550
45975,28550
45975,28542
46075,28542
46075,28550
46082,28550
46082,28650
" /> 
</g>
<g style="fill:#000000; fill-opacity:1.0; 
stroke:#000000; stroke-width:59.0551; stroke-opacity:1; 
stroke-linecap:round; stroke-linejoin:round;">
<polyline style="fill-rule:evenodd;"
points="47482,22550
47475,22550
47475,22557
47375,22557
47375,22550
46906,22550
46819,22637
46819,22725
46819,22864
46827,22884
46165,22876
45468,22250
46030,22250
46169,22250
46298,22196
46396,22098
46450,21969
46450,21994
46503,22123
46601,22221
46730,22275
46819,22275
46819,22362
46906,22450
47375,22450
47375,22442
47475,22442
47475,22450
47482,22450
47482,22550
" /> 
</g>
<g style="fill:#000000; fill-opacity:0.0; 
stroke:#000000; stroke-width:100; stroke-opacity:1; 
stroke-linecap:round; stroke-linejoin:round;">
<polyline fill="none;"
points="47482,22550
47475,22550
47475,22557
47375,22557
47375,22550
46906,22550
46819,22637
46819,22725
46819,22864
46827,22884
46165,22876
45468,22250
46030,22250
46169,22250
46298,22196
46396,22098
46450,21969
46450,21994
46503,22123
46601,22221
46730,22275
46819,22275
46819,22362
46906,22450
47375,22450
47375,22442
47475,22442
47475,22450
47482,22450
47482,22550
" /> 
</g>
<g style="fill:#000000; fill-opacity:1.0; 
stroke:#000000; stroke-width:59.0551; stroke-opacity:1; 
stroke-linecap:round; stroke-linejoin:round;">
<polyline style="fill-rule:evenodd;"
points="65368,31903
65325,31903
65325,31076
65325,29076
65230,28846
65054,28670
64824,28575
64576,28574
64346,28669
64200,28815
64200,25532
64200,15532
64033,15127
63723,14818
63319,14650
62882,14649
62477,14816
62168,15126
62000,15530
61999,15967
62166,16372
62476,16681
62880,16849
63317,16850
63722,16683
64031,16373
64199,15969
64200,15532
64200,25532
64033,25127
63750,24844
63750,22221
63651,21982
63469,21799
63650,21618
63749,21379
63750,21121
63651,20882
63494,20724
63650,20568
63749,20329
63750,20071
63651,19832
63469,19649
63650,19468
63749,19229
63750,18971
63651,18732
63468,18549
63229,18450
62971,18449
62750,18541
62750,18180
62696,18051
62598,17953
62469,17900
62330,17900
61730,17900
61708,17909
61710,17900
61710,16374
61830,16254
61925,16024
61925,15776
61830,15546
61654,15369
61424,15274
61176,15274
60946,15369
60769,15545
60674,15775
60674,16023
60769,16253
60890,16374
60890,17730
60845,17774
60676,17774
60446,17869
60269,18045
60174,18275
60174,18523
60269,18753
60445,18930
60675,19025
60923,19025
61153,18930
61330,18754
61425,18524
61425,18354
61450,18329
61450,18919
61503,19048
61601,19146
61659,19170
61549,19281
61450,19520
61449,19778
61548,20017
61705,20175
61549,20331
61450,20570
61449,20828
61548,21067
61730,21250
61549,21431
61450,21670
61449,21928
61548,22167
61731,22350
61748,22357
61730,22459
62100,22829
62105,22823
62176,22894
62170,22900
62540,23269
62664,23247
62754,23005
62750,22908
62970,22999
63228,23000
63467,22901
63650,22718
63749,22479
63750,22221
63750,24844
63723,24818
63319,24650
62882,24649
62477,24816
62469,24824
62469,23340
62100,22970
62029,23041
62029,22900
61659,22530
61535,22552
61445,22794
61455,23052
61535,23247
61659,23269
62029,22900
62029,23041
61730,23340
61752,23464
61994,23554
62252,23544
62447,23464
62469,23340
62469,24824
62168,25126
62000,25530
61999,25967
62166,26372
62476,26681
62880,26849
63317,26850
63722,26683
64031,26373
64199,25969
64200,25532
64200,28815
64170,28845
64075,29075
64074,29323
64169,29553
64345,29729
64575,29824
64823,29825
65053,29730
65229,29554
65324,29324
65325,29076
65325,31076
65230,30846
65054,30670
64824,30575
64576,30574
64346,30669
64170,30845
64075,31075
64074,31323
64169,31553
64345,31729
64575,31824
64823,31825
65053,31730
65229,31554
65324,31324
65325,31076
65325,31903
62325,31903
62325,31076
62325,29076
62230,28846
62054,28670
61824,28575
61576,28574
61425,28637
61425,28605
61425,28055
61371,27926
61273,27828
61260,27823
61329,27754
61424,27524
61425,27377
61590,27446
61808,27446
62009,27363
62163,27210
62246,27009
62246,26791
62163,26590
62010,26436
61809,26353
61591,26353
61424,26421
61425,26276
61330,26046
61183,25899
61329,25754
61424,25524
61425,25276
61330,25046
61183,24899
61329,24754
61424,24524
61425,24276
61330,24046
61183,23899
61329,23754
61424,23524
61425,23276
61330,23046
61183,22899
61329,22754
61424,22524
61425,22276
61330,22046
61183,21899
61329,21754
61424,21524
61425,21276
61330,21046
61154,20870
60924,20775
60676,20774
60446,20869
60418,20898
60348,20828
60219,20775
60080,20775
59730,20775
59601,20828
59600,20830
59598,20828
59469,20775
59386,20775
59386,18824
59386,16726
54656,16726
54692,16640
54693,16430
54613,16236
54464,16088
54271,16008
54061,16007
53867,16087
53719,16236
53639,16429
53638,16639
53718,16833
53867,16981
54060,17061
54270,17062
54464,16982
54612,16833
54613,16831
54613,18824
59386,18824
59386,20775
59330,20775
58980,20775
58851,20828
58780,20900
58747,20867
58618,20814
58479,20814
58007,20814
57900,20858
57792,20814
57624,20814
57537,20901
57537,21350
57544,21350
57544,21450
57537,21450
57537,21898
57538,21900
57537,21901
57537,22350
57544,22350
57544,22450
57537,22450
57537,22898
57538,22900
57537,22901
57537,23350
57544,23350
57544,23450
57537,23450
57537,23898
57538,23900
57537,23901
57537,24350
57544,24350
57544,24450
57537,24450
57537,24898
57538,24900
57537,24901
57537,25350
57544,25350
57544,25450
57537,25450
57537,25898
57538,25900
57537,25901
57537,26350
57544,26350
57544,26450
57537,26450
57537,26457
57437,26457
57437,26450
57429,26450
57429,26350
57437,26350
57437,25901
57435,25900
57437,25898
57437,25450
57437,25350
57437,24901
57435,24900
57437,24898
57437,24450
57437,24350
57437,23901
57435,23900
57437,23898
57437,23450
57437,23350
57437,22901
57435,22900
57437,22898
57437,22450
57437,22350
57437,21901
57435,21900
57437,21898
57437,21450
57437,21350
57437,20901
57349,20814
57181,20814
57052,20867
56954,20965
56901,21094
56901,21233
56901,21262
56988,21350
57437,21350
57437,21450
56988,21450
56901,21537
56901,21566
56901,21705
56954,21834
57020,21900
56954,21965
56901,22094
56901,22233
56901,22262
56988,22350
57437,22350
57437,22450
56988,22450
56901,22537
56901,22566
56901,22705
56954,22834
57020,22900
56954,22965
56901,23094
56901,23233
56901,23262
56988,23350
57437,23350
57437,23450
56988,23450
56901,23537
56901,23566
56901,23705
56954,23834
57020,23900
56954,23965
56901,24094
56901,24233
56901,24262
56988,24350
57437,24350
57437,24450
56988,24450
56901,24537
56901,24566
56901,24705
56954,24834
57020,24900
56954,24965
56901,25094
56901,25233
56901,25262
56988,25350
57437,25350
57437,25450
56988,25450
56901,25537
56901,25566
56901,25705
56954,25834
57020,25900
56954,25965
56901,26094
56901,26121
56485,25705
56485,25334
56546,25273
56600,25144
56600,25005
56600,24520
56627,24493
56681,24364
56681,24225
56681,24137
56681,23862
56681,23774
56681,23635
56627,23506
56529,23408
56400,23355
56212,23355
56125,23442
56125,23950
56593,23950
56681,23862
56681,24137
56593,24050
56125,24050
56125,24057
56025,24057
56025,24050
56017,24050
56017,23950
56025,23950
56025,23442
55937,23355
55749,23355
55700,23375
55650,23355
55511,23355
54999,23355
54886,23401
54854,23369
54624,23274
54376,23274
54146,23369
53969,23545
53925,23652
53910,23636
53709,23553
53491,23553
53290,23636
53136,23789
53053,23990
53053,24208
53136,24409
53190,24463
53190,24600
53204,24675
51625,24675
51625,21445
51669,21553
51845,21729
52075,21824
52323,21825
52553,21730
52623,21660
52628,21673
52726,21771
52791,21798
52753,21890
52753,22108
52836,22309
52989,22463
53190,22546
53408,22546
53609,22463
53663,22410
53800,22410
53956,22378
54089,22289
54118,22247
54147,22218
54189,22189
54278,22056
54310,21900
54310,21869
54332,21846
54408,21846
54609,21763
54763,21610
54846,21409
54846,21191
54763,20990
54610,20836
54409,20753
54191,20753
53990,20836
53836,20989
53825,21017
53825,20855
53771,20726
53673,20628
53544,20575
53405,20575
52961,20575
52961,16430
52881,16236
52732,16088
52539,16008
52329,16007
52135,16087
51987,16236
51907,16429
51906,16639
51986,16833
52135,16981
52328,17061
52538,17062
52732,16982
52880,16833
52960,16640
52961,16430
52961,20575
52855,20575
52726,20628
52628,20726
52623,20739
52554,20670
52324,20575
52076,20574
51846,20669
51670,20845
51625,20954
51625,18300
51625,18300
51625,18300
51598,18164
51592,18137
51592,18137
51500,17999
50800,17299
50750,17265
50750,15971
50651,15732
50519,15599
50650,15468
50749,15229
50750,14971
50651,14732
50468,14549
50229,14450
49971,14449
49732,14548
49599,14680
49468,14549
49229,14450
48971,14449
48732,14548
48549,14731
48450,14970
48449,15228
48548,15467
48592,15512
48503,15601
48450,15730
48450,15869
48450,16469
48503,16598
48601,16696
48730,16750
48869,16750
49469,16750
49598,16696
49687,16607
49731,16650
49970,16749
50228,16750
50467,16651
50650,16468
50749,16229
50750,15971
50750,17265
50662,17207
50617,17198
50468,17049
50229,16950
49971,16949
49732,17048
49599,17180
49468,17049
49229,16950
48971,16949
48732,17048
48549,17231
48450,17470
48449,17728
48548,17967
48592,18012
48503,18101
48450,18230
48450,18369
48450,18969
48503,19098
48601,19196
48730,19250
48869,19250
49469,19250
49598,19196
49687,19107
49731,19150
49970,19249
50228,19250
50467,19151
50650,18968
50749,18729
50750,18471
50735,18436
50775,18476
50775,24751
50736,24789
50653,24990
50653,25208
50736,25409
50889,25563
51090,25646
51308,25646
51509,25563
51548,25525
53250,25525
53623,25972
53638,25984
53649,26000
53702,26036
53752,26076
53771,26081
53787,26092
53850,26105
53911,26123
53930,26121
53950,26125
54523,26125
55163,26764
54990,26836
54836,26989
54753,27190
54753,27390
54700,27390
54543,27421
54500,27450
54499,27450
54456,27421
54300,27390
51900,27390
51743,27421
51610,27510
51567,27553
51491,27553
51350,27611
51350,27269
51350,27130
51350,26530
51296,26401
51198,26303
51069,26250
50930,26250
50330,26250
50201,26303
50112,26392
50068,26349
49829,26250
49600,26249
49600,25061
49493,24804
49297,24606
49039,24500
48761,24499
48504,24606
48306,24802
48200,25060
48199,25338
48306,25596
48502,25793
48760,25899
49038,25900
49296,25793
49493,25597
49599,25339
49600,25061
49600,26249
49571,26249
49332,26348
49199,26480
49068,26349
48829,26250
48571,26249
48332,26348
48149,26531
48050,26770
48049,27028
48148,27267
48331,27450
48570,27549
48828,27550
49067,27451
49200,27319
49331,27450
49570,27549
49828,27550
50067,27451
50112,27407
50201,27496
50330,27550
50469,27550
51069,27550
51198,27496
51296,27398
51350,27269
51350,27611
51290,27636
51136,27789
51053,27990
51053,28208
51136,28409
51289,28563
51490,28646
51708,28646
51849,28588
51849,28628
51948,28867
51992,28912
51903,29001
51850,29130
51850,29269
51850,29362
51937,29450
52450,29450
52450,29442
52550,29442
52550,29450
52557,29450
52557,29550
52550,29550
52550,30062
52637,30150
52869,30150
52998,30096
53087,30007
53131,30050
53370,30149
53628,30150
53867,30051
54000,29919
54074,29993
54074,30223
54169,30453
54173,30458
54146,30469
53999,30616
53854,30470
53624,30375
53376,30374
53146,30469
52999,30616
52854,30470
52624,30375
52450,30374
52450,30062
52450,29550
51937,29550
51850,29637
51850,29730
51850,29869
51903,29998
52001,30096
52130,30150
52362,30150
52450,30062
52450,30374
52376,30374
52146,30469
51970,30645
51875,30875
51874,31123
51969,31353
52145,31529
52375,31624
52623,31625
52853,31530
53000,31383
53145,31529
53375,31624
53623,31625
53853,31530
54000,31383
54145,31529
54375,31624
54623,31625
54853,31530
54923,31460
54928,31473
55026,31571
55155,31625
55294,31625
55844,31625
55973,31571
56001,31543
56003,31548
56101,31646
56230,31700
56369,31700
56969,31700
57098,31646
57100,31644
57101,31646
57230,31700
57462,31700
57550,31612
57550,30650
57542,30650
57542,30550
57550,30550
57550,30542
57650,30542
57650,30550
58037,30550
58162,30550
58550,30550
58550,30542
58650,30542
58650,30550
59037,30550
59162,30550
59550,30550
59550,30542
59650,30542
59650,30550
60037,30550
60162,30550
60550,30550
60550,30542
60650,30542
60650,30550
61162,30550
61250,30462
61250,29919
61250,29780
61236,29748
61300,29684
61345,29729
61575,29824
61823,29825
62053,29730
62229,29554
62324,29324
62325,29076
62325,31076
62230,30846
62054,30670
61824,30575
61576,30574
61346,30669
61250,30766
61250,30737
61162,30650
60650,30650
60650,31612
60737,31700
60969,31700
61098,31646
61180,31564
61345,31729
61575,31824
61823,31825
62053,31730
62229,31554
62324,31324
62325,31076
62325,31903
60550,31903
60550,31612
60550,30650
60162,30650
60037,30650
59650,30650
59650,31612
59737,31700
59969,31700
60098,31646
60100,31644
60101,31646
60230,31700
60462,31700
60550,31612
60550,31903
59550,31903
59550,31612
59550,30650
59162,30650
59037,30650
58650,30650
58650,31612
58737,31700
58969,31700
59098,31646
59100,31644
59101,31646
59230,31700
59462,31700
59550,31612
59550,31903
58550,31903
58550,31612
58550,30650
58162,30650
58037,30650
57650,30650
57650,31612
57737,31700
57969,31700
58098,31646
58100,31644
58101,31646
58230,31700
58462,31700
58550,31612
58550,31903
51046,31903
51046,28791
50963,28590
50810,28436
50609,28353
50533,28353
49889,27710
49756,27621
49600,27590
47495,27590
47495,27014
47495,26875
47495,26137
47495,25862
47495,25124
47495,24985
47441,24856
47343,24758
47214,24705
46337,24705
46250,24792
46250,25950
47407,25950
47495,25862
47495,26137
47407,26050
46250,26050
46250,27207
46337,27295
47214,27295
47343,27241
47441,27143
47495,27014
47495,27590
45263,27590
45210,27536
45009,27453
44889,27453
44863,27390
44710,27236
44509,27153
44400,27153
44532,27098
44897,26734
44905,26715
44905,26875
44905,27014
44958,27143
45056,27241
45185,27295
46062,27295
46150,27207
46150,26050
46142,26050
46142,25950
46150,25950
46150,24792
46062,24705
45809,24705
45994,24258
45995,23743
45986,23723
45995,23724
48170,23749
48172,23749
48175,23750
48253,23734
48333,23719
48335,23718
48337,23717
48391,23681
48502,23793
48760,23899
49038,23900
49296,23793
49493,23597
49599,23339
49600,23061
49493,22804
49297,22606
49039,22500
48781,22499
48781,22135
48727,22006
48675,21954
48675,21675
48675,21675
48675,21675
48636,21483
48528,21321
48528,21321
48528,21321
48453,21246
48333,21166
48296,21076
48198,20978
48069,20925
47930,20925
46730,20925
46601,20978
46503,21076
46450,21205
46450,20837
46362,20750
44950,20750
44950,20757
44850,20757
44850,20750
44842,20750
44842,20650
44850,20650
44850,20642
44950,20642
44950,20650
46362,20650
46450,20562
46450,20194
46503,20323
46601,20421
46730,20475
46869,20475
48069,20475
48198,20421
48296,20323
48350,20194
48350,20055
48350,19405
48296,19276
48198,19178
48069,19125
47930,19125
47825,19125
47825,17942
47853,17930
48030,17754
48125,17524
48125,17276
48030,17046
47854,16869
47624,16774
47526,16774
47551,16750
47869,16750
47998,16696
48096,16598
48150,16469
48150,16330
48150,15730
48096,15601
48069,15575
48071,15573
48125,15444
48125,15305
48125,15237
48125,14962
48125,14894
48125,14755
48071,14626
47973,14528
47844,14475
47637,14475
47550,14562
47550,15050
48037,15050
48125,14962
48125,15237
48037,15150
47550,15150
47550,15157
47450,15157
47450,15150
47442,15150
47442,15050
47450,15050
47450,14562
47362,14475
47155,14475
47026,14528
46928,14626
46927,14627
46914,14614
46851,14677
46832,14556
46599,14470
46351,14480
46167,14556
46148,14677
46500,15029
46505,15023
46576,15094
46570,15100
46576,15105
46505,15176
46500,15170
46429,15241
46429,15100
46077,14748
46000,14760
45922,14748
45851,14818
45851,14677
45832,14556
45599,14470
45351,14480
45167,14556
45148,14677
45500,15029
45851,14677
45851,14818
45570,15100
45922,15451
46000,15439
46077,15451
46429,15100
46429,15241
46148,15522
46151,15540
46132,15548
45999,15680
45868,15549
45848,15541
45851,15522
45500,15170
45429,15241
45148,15522
45151,15540
45132,15548
45087,15592
44998,15503
44956,15486
44922,15451
45000,15439
45077,15451
45429,15100
45077,14748
45000,14760
44922,14748
44851,14818
44851,14677
44832,14556
44599,14470
44351,14480
44167,14556
44148,14677
44500,15029
44851,14677
44851,14818
44570,15100
44576,15105
44505,15176
44500,15170
44494,15176
44429,15111
44423,15105
44429,15100
44077,14748
44000,14760
43922,14748
43851,14818
43570,15100
43922,15451
44000,15439
44077,15451
44043,15486
44001,15503
43912,15592
43868,15549
43848,15541
43851,15522
43500,15170
43494,15176
43423,15105
43429,15100
43423,15094
43494,15023
43500,15029
43851,14677
43832,14556
43599,14470
43351,14480
43167,14556
43148,14677
43085,14614
43072,14627
43071,14626
42973,14528
42844,14475
42637,14475
42550,14562
42550,15050
42557,15050
42557,15150
42550,15150
42550,15157
42450,15157
42450,15150
42450,15050
42450,14562
42362,14475
42155,14475
42026,14528
41928,14626
41875,14755
41875,14894
41875,14962
41962,15050
42450,15050
42450,15150
41962,15150
41875,15237
41875,15305
41875,15444
41928,15573
42017,15662
41949,15731
41850,15970
41849,16228
41948,16467
42075,16594
42075,30400
42107,30562
42199,30700
42899,31400
43037,31492
43037,31492
43064,31498
43200,31525
43200,31525
43200,31525
48400,31525
48562,31492
48700,31400
48875,31225
49023,31225
49253,31130
49430,30954
49525,30724
49525,30476
49430,30246
49254,30069
49024,29974
48776,29974
48546,30069
48441,30173
48430,30146
48279,29994
48300,29944
48300,29805
48300,29255
48246,29126
48148,29028
48019,28975
47880,28975
47805,28975
47778,28843
47689,28710
47647,28681
47375,28410
49430,28410
49953,28932
49953,29008
50036,29209
50189,29363
50390,29446
50608,29446
50809,29363
50963,29210
51046,29009
51046,28791
51046,31903
41718,31903
41718,14159
65368,14159
65368,31903
" /> 
</g>
<g style="fill:#000000; fill-opacity:0.0; 
stroke:#000000; stroke-width:100; stroke-opacity:1; 
stroke-linecap:round; stroke-linejoin:round;">
<polyline fill="none;"
points="65368,31903
65325,31903
65325,31076
65325,29076
65230,28846
65054,28670
64824,28575
64576,28574
64346,28669
64200,28815
64200,25532
64200,15532
64033,15127
63723,14818
63319,14650
62882,14649
62477,14816
62168,15126
62000,15530
61999,15967
62166,16372
62476,16681
62880,16849
63317,16850
63722,16683
64031,16373
64199,15969
64200,15532
64200,25532
64033,25127
63750,24844
63750,22221
63651,21982
63469,21799
63650,21618
63749,21379
63750,21121
63651,20882
63494,20724
63650,20568
63749,20329
63750,20071
63651,19832
63469,19649
63650,19468
63749,19229
63750,18971
63651,18732
63468,18549
63229,18450
62971,18449
62750,18541
62750,18180
62696,18051
62598,17953
62469,17900
62330,17900
61730,17900
61708,17909
61710,17900
61710,16374
61830,16254
61925,16024
61925,15776
61830,15546
61654,15369
61424,15274
61176,15274
60946,15369
60769,15545
60674,15775
60674,16023
60769,16253
60890,16374
60890,17730
60845,17774
60676,17774
60446,17869
60269,18045
60174,18275
60174,18523
60269,18753
60445,18930
60675,19025
60923,19025
61153,18930
61330,18754
61425,18524
61425,18354
61450,18329
61450,18919
61503,19048
61601,19146
61659,19170
61549,19281
61450,19520
61449,19778
61548,20017
61705,20175
61549,20331
61450,20570
61449,20828
61548,21067
61730,21250
61549,21431
61450,21670
61449,21928
61548,22167
61731,22350
61748,22357
61730,22459
62100,22829
62105,22823
62176,22894
62170,22900
62540,23269
62664,23247
62754,23005
62750,22908
62970,22999
63228,23000
63467,22901
63650,22718
63749,22479
63750,22221
63750,24844
63723,24818
63319,24650
62882,24649
62477,24816
62469,24824
62469,23340
62100,22970
62029,23041
62029,22900
61659,22530
61535,22552
61445,22794
61455,23052
61535,23247
61659,23269
62029,22900
62029,23041
61730,23340
61752,23464
61994,23554
62252,23544
62447,23464
62469,23340
62469,24824
62168,25126
62000,25530
61999,25967
62166,26372
62476,26681
62880,26849
63317,26850
63722,26683
64031,26373
64199,25969
64200,25532
64200,28815
64170,28845
64075,29075
64074,29323
64169,29553
64345,29729
64575,29824
64823,29825
65053,29730
65229,29554
65324,29324
65325,29076
65325,31076
65230,30846
65054,30670
64824,30575
64576,30574
64346,30669
64170,30845
64075,31075
64074,31323
64169,31553
64345,31729
64575,31824
64823,31825
65053,31730
65229,31554
65324,31324
65325,31076
65325,31903
62325,31903
62325,31076
62325,29076
62230,28846
62054,28670
61824,28575
61576,28574
61425,28637
61425,28605
61425,28055
61371,27926
61273,27828
61260,27823
61329,27754
61424,27524
61425,27377
61590,27446
61808,27446
62009,27363
62163,27210
62246,27009
62246,26791
62163,26590
62010,26436
61809,26353
61591,26353
61424,26421
61425,26276
61330,26046
61183,25899
61329,25754
61424,25524
61425,25276
61330,25046
61183,24899
61329,24754
61424,24524
61425,24276
61330,24046
61183,23899
61329,23754
61424,23524
61425,23276
61330,23046
61183,22899
61329,22754
61424,22524
61425,22276
61330,22046
61183,21899
61329,21754
61424,21524
61425,21276
61330,21046
61154,20870
60924,20775
60676,20774
60446,20869
60418,20898
60348,20828
60219,20775
60080,20775
59730,20775
59601,20828
59600,20830
59598,20828
59469,20775
59386,20775
59386,18824
59386,16726
54656,16726
54692,16640
54693,16430
54613,16236
54464,16088
54271,16008
54061,16007
53867,16087
53719,16236
53639,16429
53638,16639
53718,16833
53867,16981
54060,17061
54270,17062
54464,16982
54612,16833
54613,16831
54613,18824
59386,18824
59386,20775
59330,20775
58980,20775
58851,20828
58780,20900
58747,20867
58618,20814
58479,20814
58007,20814
57900,20858
57792,20814
57624,20814
57537,20901
57537,21350
57544,21350
57544,21450
57537,21450
57537,21898
57538,21900
57537,21901
57537,22350
57544,22350
57544,22450
57537,22450
57537,22898
57538,22900
57537,22901
57537,23350
57544,23350
57544,23450
57537,23450
57537,23898
57538,23900
57537,23901
57537,24350
57544,24350
57544,24450
57537,24450
57537,24898
57538,24900
57537,24901
57537,25350
57544,25350
57544,25450
57537,25450
57537,25898
57538,25900
57537,25901
57537,26350
57544,26350
57544,26450
57537,26450
57537,26457
57437,26457
57437,26450
57429,26450
57429,26350
57437,26350
57437,25901
57435,25900
57437,25898
57437,25450
57437,25350
57437,24901
57435,24900
57437,24898
57437,24450
57437,24350
57437,23901
57435,23900
57437,23898
57437,23450
57437,23350
57437,22901
57435,22900
57437,22898
57437,22450
57437,22350
57437,21901
57435,21900
57437,21898
57437,21450
57437,21350
57437,20901
57349,20814
57181,20814
57052,20867
56954,20965
56901,21094
56901,21233
56901,21262
56988,21350
57437,21350
57437,21450
56988,21450
56901,21537
56901,21566
56901,21705
56954,21834
57020,21900
56954,21965
56901,22094
56901,22233
56901,22262
56988,22350
57437,22350
57437,22450
56988,22450
56901,22537
56901,22566
56901,22705
56954,22834
57020,22900
56954,22965
56901,23094
56901,23233
56901,23262
56988,23350
57437,23350
57437,23450
56988,23450
56901,23537
56901,23566
56901,23705
56954,23834
57020,23900
56954,23965
56901,24094
56901,24233
56901,24262
56988,24350
57437,24350
57437,24450
56988,24450
56901,24537
56901,24566
56901,24705
56954,24834
57020,24900
56954,24965
56901,25094
56901,25233
56901,25262
56988,25350
57437,25350
57437,25450
56988,25450
56901,25537
56901,25566
56901,25705
56954,25834
57020,25900
56954,25965
56901,26094
56901,26121
56485,25705
56485,25334
56546,25273
56600,25144
56600,25005
56600,24520
56627,24493
56681,24364
56681,24225
56681,24137
56681,23862
56681,23774
56681,23635
56627,23506
56529,23408
56400,23355
56212,23355
56125,23442
56125,23950
56593,23950
56681,23862
56681,24137
56593,24050
56125,24050
56125,24057
56025,24057
56025,24050
56017,24050
56017,23950
56025,23950
56025,23442
55937,23355
55749,23355
55700,23375
55650,23355
55511,23355
54999,23355
54886,23401
54854,23369
54624,23274
54376,23274
54146,23369
53969,23545
53925,23652
53910,23636
53709,23553
53491,23553
53290,23636
53136,23789
53053,23990
53053,24208
53136,24409
53190,24463
53190,24600
53204,24675
51625,24675
51625,21445
51669,21553
51845,21729
52075,21824
52323,21825
52553,21730
52623,21660
52628,21673
52726,21771
52791,21798
52753,21890
52753,22108
52836,22309
52989,22463
53190,22546
53408,22546
53609,22463
53663,22410
53800,22410
53956,22378
54089,22289
54118,22247
54147,22218
54189,22189
54278,22056
54310,21900
54310,21869
54332,21846
54408,21846
54609,21763
54763,21610
54846,21409
54846,21191
54763,20990
54610,20836
54409,20753
54191,20753
53990,20836
53836,20989
53825,21017
53825,20855
53771,20726
53673,20628
53544,20575
53405,20575
52961,20575
52961,16430
52881,16236
52732,16088
52539,16008
52329,16007
52135,16087
51987,16236
51907,16429
51906,16639
51986,16833
52135,16981
52328,17061
52538,17062
52732,16982
52880,16833
52960,16640
52961,16430
52961,20575
52855,20575
52726,20628
52628,20726
52623,20739
52554,20670
52324,20575
52076,20574
51846,20669
51670,20845
51625,20954
51625,18300
51625,18300
51625,18300
51598,18164
51592,18137
51592,18137
51500,17999
50800,17299
50750,17265
50750,15971
50651,15732
50519,15599
50650,15468
50749,15229
50750,14971
50651,14732
50468,14549
50229,14450
49971,14449
49732,14548
49599,14680
49468,14549
49229,14450
48971,14449
48732,14548
48549,14731
48450,14970
48449,15228
48548,15467
48592,15512
48503,15601
48450,15730
48450,15869
48450,16469
48503,16598
48601,16696
48730,16750
48869,16750
49469,16750
49598,16696
49687,16607
49731,16650
49970,16749
50228,16750
50467,16651
50650,16468
50749,16229
50750,15971
50750,17265
50662,17207
50617,17198
50468,17049
50229,16950
49971,16949
49732,17048
49599,17180
49468,17049
49229,16950
48971,16949
48732,17048
48549,17231
48450,17470
48449,17728
48548,17967
48592,18012
48503,18101
48450,18230
48450,18369
48450,18969
48503,19098
48601,19196
48730,19250
48869,19250
49469,19250
49598,19196
49687,19107
49731,19150
49970,19249
50228,19250
50467,19151
50650,18968
50749,18729
50750,18471
50735,18436
50775,18476
50775,24751
50736,24789
50653,24990
50653,25208
50736,25409
50889,25563
51090,25646
51308,25646
51509,25563
51548,25525
53250,25525
53623,25972
53638,25984
53649,26000
53702,26036
53752,26076
53771,26081
53787,26092
53850,26105
53911,26123
53930,26121
53950,26125
54523,26125
55163,26764
54990,26836
54836,26989
54753,27190
54753,27390
54700,27390
54543,27421
54500,27450
54499,27450
54456,27421
54300,27390
51900,27390
51743,27421
51610,27510
51567,27553
51491,27553
51350,27611
51350,27269
51350,27130
51350,26530
51296,26401
51198,26303
51069,26250
50930,26250
50330,26250
50201,26303
50112,26392
50068,26349
49829,26250
49600,26249
49600,25061
49493,24804
49297,24606
49039,24500
48761,24499
48504,24606
48306,24802
48200,25060
48199,25338
48306,25596
48502,25793
48760,25899
49038,25900
49296,25793
49493,25597
49599,25339
49600,25061
49600,26249
49571,26249
49332,26348
49199,26480
49068,26349
48829,26250
48571,26249
48332,26348
48149,26531
48050,26770
48049,27028
48148,27267
48331,27450
48570,27549
48828,27550
49067,27451
49200,27319
49331,27450
49570,27549
49828,27550
50067,27451
50112,27407
50201,27496
50330,27550
50469,27550
51069,27550
51198,27496
51296,27398
51350,27269
51350,27611
51290,27636
51136,27789
51053,27990
51053,28208
51136,28409
51289,28563
51490,28646
51708,28646
51849,28588
51849,28628
51948,28867
51992,28912
51903,29001
51850,29130
51850,29269
51850,29362
51937,29450
52450,29450
52450,29442
52550,29442
52550,29450
52557,29450
52557,29550
52550,29550
52550,30062
52637,30150
52869,30150
52998,30096
53087,30007
53131,30050
53370,30149
53628,30150
53867,30051
54000,29919
54074,29993
54074,30223
54169,30453
54173,30458
54146,30469
53999,30616
53854,30470
53624,30375
53376,30374
53146,30469
52999,30616
52854,30470
52624,30375
52450,30374
52450,30062
52450,29550
51937,29550
51850,29637
51850,29730
51850,29869
51903,29998
52001,30096
52130,30150
52362,30150
52450,30062
52450,30374
52376,30374
52146,30469
51970,30645
51875,30875
51874,31123
51969,31353
52145,31529
52375,31624
52623,31625
52853,31530
53000,31383
53145,31529
53375,31624
53623,31625
53853,31530
54000,31383
54145,31529
54375,31624
54623,31625
54853,31530
54923,31460
54928,31473
55026,31571
55155,31625
55294,31625
55844,31625
55973,31571
56001,31543
56003,31548
56101,31646
56230,31700
56369,31700
56969,31700
57098,31646
57100,31644
57101,31646
57230,31700
57462,31700
57550,31612
57550,30650
57542,30650
57542,30550
57550,30550
57550,30542
57650,30542
57650,30550
58037,30550
58162,30550
58550,30550
58550,30542
58650,30542
58650,30550
59037,30550
59162,30550
59550,30550
59550,30542
59650,30542
59650,30550
60037,30550
60162,30550
60550,30550
60550,30542
60650,30542
60650,30550
61162,30550
61250,30462
61250,29919
61250,29780
61236,29748
61300,29684
61345,29729
61575,29824
61823,29825
62053,29730
62229,29554
62324,29324
62325,29076
62325,31076
62230,30846
62054,30670
61824,30575
61576,30574
61346,30669
61250,30766
61250,30737
61162,30650
60650,30650
60650,31612
60737,31700
60969,31700
61098,31646
61180,31564
61345,31729
61575,31824
61823,31825
62053,31730
62229,31554
62324,31324
62325,31076
62325,31903
60550,31903
60550,31612
60550,30650
60162,30650
60037,30650
59650,30650
59650,31612
59737,31700
59969,31700
60098,31646
60100,31644
60101,31646
60230,31700
60462,31700
60550,31612
60550,31903
59550,31903
59550,31612
59550,30650
59162,30650
59037,30650
58650,30650
58650,31612
58737,31700
58969,31700
59098,31646
59100,31644
59101,31646
59230,31700
59462,31700
59550,31612
59550,31903
58550,31903
58550,31612
58550,30650
58162,30650
58037,30650
57650,30650
57650,31612
57737,31700
57969,31700
58098,31646
58100,31644
58101,31646
58230,31700
58462,31700
58550,31612
58550,31903
51046,31903
51046,28791
50963,28590
50810,28436
50609,28353
50533,28353
49889,27710
49756,27621
49600,27590
47495,27590
47495,27014
47495,26875
47495,26137
47495,25862
47495,25124
47495,24985
47441,24856
47343,24758
47214,24705
46337,24705
46250,24792
46250,25950
47407,25950
47495,25862
47495,26137
47407,26050
46250,26050
46250,27207
46337,27295
47214,27295
47343,27241
47441,27143
47495,27014
47495,27590
45263,27590
45210,27536
45009,27453
44889,27453
44863,27390
44710,27236
44509,27153
44400,27153
44532,27098
44897,26734
44905,26715
44905,26875
44905,27014
44958,27143
45056,27241
45185,27295
46062,27295
46150,27207
46150,26050
46142,26050
46142,25950
46150,25950
46150,24792
46062,24705
45809,24705
45994,24258
45995,23743
45986,23723
45995,23724
48170,23749
48172,23749
48175,23750
48253,23734
48333,23719
48335,23718
48337,23717
48391,23681
48502,23793
48760,23899
49038,23900
49296,23793
49493,23597
49599,23339
49600,23061
49493,22804
49297,22606
49039,22500
48781,22499
48781,22135
48727,22006
48675,21954
48675,21675
48675,21675
48675,21675
48636,21483
48528,21321
48528,21321
48528,21321
48453,21246
48333,21166
48296,21076
48198,20978
48069,20925
47930,20925
46730,20925
46601,20978
46503,21076
46450,21205
46450,20837
46362,20750
44950,20750
44950,20757
44850,20757
44850,20750
44842,20750
44842,20650
44850,20650
44850,20642
44950,20642
44950,20650
46362,20650
46450,20562
46450,20194
46503,20323
46601,20421
46730,20475
46869,20475
48069,20475
48198,20421
48296,20323
48350,20194
48350,20055
48350,19405
48296,19276
48198,19178
48069,19125
47930,19125
47825,19125
47825,17942
47853,17930
48030,17754
48125,17524
48125,17276
48030,17046
47854,16869
47624,16774
47526,16774
47551,16750
47869,16750
47998,16696
48096,16598
48150,16469
48150,16330
48150,15730
48096,15601
48069,15575
48071,15573
48125,15444
48125,15305
48125,15237
48125,14962
48125,14894
48125,14755
48071,14626
47973,14528
47844,14475
47637,14475
47550,14562
47550,15050
48037,15050
48125,14962
48125,15237
48037,15150
47550,15150
47550,15157
47450,15157
47450,15150
47442,15150
47442,15050
47450,15050
47450,14562
47362,14475
47155,14475
47026,14528
46928,14626
46927,14627
46914,14614
46851,14677
46832,14556
46599,14470
46351,14480
46167,14556
46148,14677
46500,15029
46505,15023
46576,15094
46570,15100
46576,15105
46505,15176
46500,15170
46429,15241
46429,15100
46077,14748
46000,14760
45922,14748
45851,14818
45851,14677
45832,14556
45599,14470
45351,14480
45167,14556
45148,14677
45500,15029
45851,14677
45851,14818
45570,15100
45922,15451
46000,15439
46077,15451
46429,15100
46429,15241
46148,15522
46151,15540
46132,15548
45999,15680
45868,15549
45848,15541
45851,15522
45500,15170
45429,15241
45148,15522
45151,15540
45132,15548
45087,15592
44998,15503
44956,15486
44922,15451
45000,15439
45077,15451
45429,15100
45077,14748
45000,14760
44922,14748
44851,14818
44851,14677
44832,14556
44599,14470
44351,14480
44167,14556
44148,14677
44500,15029
44851,14677
44851,14818
44570,15100
44576,15105
44505,15176
44500,15170
44494,15176
44429,15111
44423,15105
44429,15100
44077,14748
44000,14760
43922,14748
43851,14818
43570,15100
43922,15451
44000,15439
44077,15451
44043,15486
44001,15503
43912,15592
43868,15549
43848,15541
43851,15522
43500,15170
43494,15176
43423,15105
43429,15100
43423,15094
43494,15023
43500,15029
43851,14677
43832,14556
43599,14470
43351,14480
43167,14556
43148,14677
43085,14614
43072,14627
43071,14626
42973,14528
42844,14475
42637,14475
42550,14562
42550,15050
42557,15050
42557,15150
42550,15150
42550,15157
42450,15157
42450,15150
42450,15050
42450,14562
42362,14475
42155,14475
42026,14528
41928,14626
41875,14755
41875,14894
41875,14962
41962,15050
42450,15050
42450,15150
41962,15150
41875,15237
41875,15305
41875,15444
41928,15573
42017,15662
41949,15731
41850,15970
41849,16228
41948,16467
42075,16594
42075,30400
42107,30562
42199,30700
42899,31400
43037,31492
43037,31492
43064,31498
43200,31525
43200,31525
43200,31525
48400,31525
48562,31492
48700,31400
48875,31225
49023,31225
49253,31130
49430,30954
49525,30724
49525,30476
49430,30246
49254,30069
49024,29974
48776,29974
48546,30069
48441,30173
48430,30146
48279,29994
48300,29944
48300,29805
48300,29255
48246,29126
48148,29028
48019,28975
47880,28975
47805,28975
47778,28843
47689,28710
47647,28681
47375,28410
49430,28410
49953,28932
49953,29008
50036,29209
50189,29363
50390,29446
50608,29446
50809,29363
50963,29210
51046,29009
51046,28791
51046,31903
41718,31903
41718,14159
65368,14159
65368,31903
" /> 
</g>
<g style="fill:#FFFFFF; fill-opacity:0.0; 
stroke:#FFFFFF; stroke-width:59.0551; stroke-opacity:1; 
stroke-linecap:round; stroke-linejoin:round;">
</g>
<g style="fill:#FFFFFF; fill-opacity:1.0; 
stroke:#FFFFFF; stroke-width:59.0551; stroke-opacity:1; 
stroke-linecap:round; stroke-linejoin:round;">
<circle cx="48900" cy="30600" r="127.953" /> 
<circle cx="44900" cy="28000" r="68.8976" /> 
<circle cx="50500" cy="28900" r="68.8976" /> 
<circle cx="53600" cy="24100" r="68.8976" /> 
<circle cx="54200" cy="25200" r="68.8976" /> 
<circle cx="58100" cy="27300" r="68.8976" /> 
<circle cx="55300" cy="27300" r="68.8976" /> 
<circle cx="51600" cy="28100" r="68.8976" /> 
<circle cx="56600" cy="27700" r="68.8976" /> 
<circle cx="54500" cy="28000" r="68.8976" /> 
<circle cx="58600" cy="29500" r="68.8976" /> 
<circle cx="60800" cy="29300" r="127.953" /> 
<circle cx="56100" cy="26500" r="68.8976" /> 
<circle cx="54500" cy="23900" r="127.953" /> 
<circle cx="58900" cy="28700" r="68.8976" /> 
<circle cx="54700" cy="30100" r="127.953" /> 
<circle cx="53300" cy="22000" r="68.8976" /> 
<circle cx="54300" cy="21300" r="68.8976" /> 
<circle cx="48100" cy="17900" r="127.953" /> 
<circle cx="49900" cy="20700" r="127.953" /> 
<circle cx="45100" cy="20700" r="127.953" /> 
<circle cx="54400" cy="20400" r="127.953" /> 
<circle cx="51600" cy="20400" r="68.8976" /> 
<circle cx="56700" cy="20000" r="68.8976" /> 
<circle cx="51900" cy="26600" r="127.953" /> 
<circle cx="51400" cy="29600" r="127.953" /> 
<circle cx="60200" cy="19000" r="127.953" /> 
<circle cx="61600" cy="22500" r="127.953" /> 
<circle cx="61900" cy="30400" r="127.953" /> 
<circle cx="57000" cy="24800" r="68.8976" /> 
<circle cx="47900" cy="30500" r="127.953" /> 
<circle cx="61300" cy="15900" r="127.953" /> 
<circle cx="60800" cy="18400" r="127.953" /> 
<circle cx="46900" cy="30600" r="127.953" /> 
<circle cx="44400" cy="27700" r="68.8976" /> 
<circle cx="45900" cy="30600" r="127.953" /> 
<circle cx="43900" cy="30600" r="127.953" /> 
<circle cx="47500" cy="17400" r="127.953" /> 
<circle cx="47400" cy="19800" r="127.953" /> 
<circle cx="51200" cy="25100" r="68.8976" /> 
<circle cx="61700" cy="26900" r="68.8976" /> 
<circle cx="59100" cy="27400" r="127.953" /> 
<circle cx="63100" cy="25750" r="570.472" /> 
<circle cx="63100" cy="15750" r="570.472" /> 
<circle cx="62100" cy="18550" r="170.472" /> 
<circle cx="62100" cy="19650" r="170.472" /> 
<circle cx="62100" cy="20700" r="170.472" /> 
<circle cx="62100" cy="21800" r="170.472" /> 
<circle cx="62100" cy="22900" r="170.472" /> 
<circle cx="63100" cy="19100" r="170.472" /> 
<circle cx="63100" cy="20200" r="170.472" /> 
<circle cx="63100" cy="21250" r="170.472" /> 
<circle cx="63100" cy="22350" r="170.472" /> 
<circle cx="44500" cy="16100" r="170.472" /> 
<circle cx="43500" cy="16100" r="170.472" /> 
<circle cx="42500" cy="16100" r="170.472" /> 
<circle cx="47500" cy="16100" r="170.472" /> 
<circle cx="46500" cy="16100" r="170.472" /> 
<circle cx="45500" cy="16100" r="170.472" /> 
<circle cx="50700" cy="26900" r="170.472" /> 
<circle cx="49700" cy="26900" r="170.472" /> 
<circle cx="48700" cy="26900" r="170.472" /> 
<circle cx="49100" cy="18600" r="170.472" /> 
<circle cx="49100" cy="17600" r="170.472" /> 
<circle cx="50100" cy="18600" r="170.472" /> 
<circle cx="50100" cy="17600" r="170.472" /> 
<circle cx="47500" cy="15100" r="130.472" /> 
<circle cx="46500" cy="15100" r="130.472" /> 
<circle cx="45500" cy="15100" r="130.472" /> 
<circle cx="44500" cy="15100" r="130.472" /> 
<circle cx="43500" cy="15100" r="130.472" /> 
<circle cx="60800" cy="28400" r="130.472" /> 
<circle cx="60800" cy="27400" r="130.472" /> 
<circle cx="60800" cy="26400" r="130.472" /> 
<circle cx="60800" cy="25400" r="130.472" /> 
<circle cx="60800" cy="24400" r="130.472" /> 
<circle cx="60800" cy="23400" r="130.472" /> 
<circle cx="60800" cy="22400" r="130.472" /> 
<circle cx="60800" cy="21400" r="130.472" /> 
<circle cx="53200" cy="21200" r="130.472" /> 
<circle cx="52200" cy="21200" r="130.472" /> 
<circle cx="42500" cy="15100" r="130.472" /> 
<circle cx="64700" cy="29200" r="130.472" /> 
<circle cx="64700" cy="31200" r="130.472" /> 
<circle cx="61700" cy="29200" r="130.472" /> 
<circle cx="61700" cy="31200" r="130.472" /> 
<circle cx="55500" cy="31000" r="130.472" /> 
<circle cx="54500" cy="31000" r="130.472" /> 
<circle cx="53500" cy="31000" r="130.472" /> 
<circle cx="52500" cy="31000" r="130.472" /> 
<circle cx="52500" cy="29500" r="170.472" /> 
<circle cx="52500" cy="28500" r="170.472" /> 
<circle cx="53500" cy="29500" r="170.472" /> 
<circle cx="53500" cy="28500" r="170.472" /> 
<circle cx="54500" cy="29500" r="170.472" /> 
<circle cx="54500" cy="28500" r="170.472" /> 
<circle cx="55500" cy="29500" r="170.472" /> 
<circle cx="55500" cy="28500" r="170.472" /> 
<circle cx="49100" cy="16100" r="170.472" /> 
<circle cx="49100" cy="15100" r="170.472" /> 
<circle cx="50100" cy="16100" r="170.472" /> 
<circle cx="50100" cy="15100" r="170.472" /> 
<circle cx="48900" cy="25200" r="127.472" /> 
<circle cx="48900" cy="23200" r="127.472" /> 
</g>
<g style="fill:#FFFFFF; fill-opacity:1.0; 
stroke:#FFFFFF; stroke-width:400; stroke-opacity:1; 
stroke-linecap:round; stroke-linejoin:round;">
<path d="M43800 25700
L43800 26300
" />
<path d="M46200 25700
L46200 26300
" />
<path d="M44400 24000
L45000 24000
" />
</g>
<g style="fill:#FFFFFF; fill-opacity:1.0; 
stroke:#FFFFFF; stroke-width:59.0551; stroke-opacity:1; 
stroke-linecap:round; stroke-linejoin:round;">
<circle cx="54166" cy="16535" r="147.472" /> 
<circle cx="52434" cy="16535" r="147.472" /> 
</g> 
</svg>
